<svg width="21" height="18" viewBox="0 0 21 18" fill="none" xmlns="http://www.w3.org/2000/svg">
<path d="M11.0344 4.5H9.02812V8.1H5.01562V9.9H9.02812V13.5H11.0344V9.9H15.0469V8.1H11.0344V4.5ZM10.0312 0C4.494 0 0 4.032 0 9C0 13.968 4.494 18 10.0312 18C15.5685 18 20.0625 13.968 20.0625 9C20.0625 4.032 15.5685 0 10.0312 0ZM10.0312 16.2C5.60747 16.2 2.00625 12.969 2.00625 9C2.00625 5.031 5.60747 1.8 10.0312 1.8C14.455 1.8 18.0562 5.031 18.0562 9C18.0562 12.969 14.455 16.2 10.0312 16.2Z" fill="#2C3832"/>
</svg>
