<svg width="23" height="23" viewBox="0 0 23 23" fill="none" xmlns="http://www.w3.org/2000/svg">
<circle cx="11.5" cy="11.5" r="11.5" fill="#89928E"/>
<path d="M11.634 8.02L8.484 15.58C8.428 15.7293 8.344 15.846 8.232 15.93C8.12 16.014 7.994 16.056 7.854 16.056C7.64867 16.056 7.49467 16 7.392 15.888C7.28933 15.7667 7.23333 15.6173 7.224 15.44C7.224 15.3747 7.238 15.3 7.266 15.216L10.822 6.62C10.8873 6.46133 10.9807 6.34 11.102 6.256C11.2327 6.172 11.3727 6.13467 11.522 6.144C11.662 6.144 11.7927 6.186 11.914 6.27C12.0353 6.354 12.124 6.47067 12.18 6.62L15.694 15.09C15.7313 15.1833 15.75 15.2767 15.75 15.37C15.75 15.5753 15.68 15.7433 15.54 15.874C15.4093 15.9953 15.26 16.056 15.092 16.056C14.952 16.056 14.8213 16.014 14.7 15.93C14.588 15.8367 14.504 15.72 14.448 15.58L11.27 8.062L11.634 8.02ZM9.044 13.592L9.674 12.248H13.636L13.874 13.592H9.044Z" fill="#060D0F"/>
</svg>
