<svg width="38" height="17" viewBox="0 0 38 17" fill="none" xmlns="http://www.w3.org/2000/svg">
<g clip-path="url(#clip0_171_704)">
<path d="M18.4465 10.9315C17.6258 12.1361 14.8904 14.0696 11.3078 15.9768C9.95267 16.6984 8.52909 17.0414 7.07636 16.9962C5.84769 16.9576 4.83265 16.6592 4.0914 16.441C3.84923 16.3698 3.6399 16.3082 3.46372 16.2677C2.94192 16.1482 2.15525 15.8127 1.30503 15.3479C0.741495 15.0397 0.125166 14.6564 0.0180447 14.5116C0.0109851 14.5021 0.00638105 14.4936 0.00392556 14.4863C-0.0015993 14.4705 -0.00129237 14.4544 0.00484637 14.4408C0.00668799 14.4364 0.00914348 14.4319 0.0122129 14.4282C0.0975413 14.3181 0.324675 14.026 2.65064 14.1186C5.53523 14.2334 8.42167 12.6427 10.6577 10.8828C11.3118 10.368 11.9217 9.79035 12.456 9.14439C13.0082 8.47692 13.3477 7.74527 13.7823 7.00792C14.2753 6.17162 15.4257 5.58984 16.3188 5.33404C16.3281 5.33151 16.3379 5.33183 16.3471 5.33531C16.4496 5.37325 18.3551 6.08688 19.3339 6.70217C19.608 6.87418 19.8093 7.03859 19.8784 7.17835C20.2044 7.83823 19.2375 9.77012 18.4465 10.9311V10.9315Z" fill="#FF2311"/>
<path opacity="0.6" d="M18.4465 10.9315C17.6258 12.1361 14.8904 14.0696 11.3078 15.9768C9.95267 16.6984 8.52909 17.0414 7.07636 16.9962C5.84769 16.9576 4.83265 16.6591 4.0914 16.441C3.84923 16.3698 3.6399 16.3082 3.46372 16.2677C2.94192 16.1482 2.15525 15.8127 1.30503 15.3479C0.741495 15.0396 0.125166 14.6564 0.0180447 14.5116C0.0109851 14.5021 0.00638105 14.4936 0.00392556 14.4863C-0.0015993 14.4705 -0.00129237 14.4544 0.00484637 14.4408C1.34217 14.7728 3.32161 15.8548 4.5159 16.1419C8.85015 17.1831 11.8388 14.7788 13.4137 13.8027C14.0886 13.3844 14.7077 12.8785 15.3201 12.3685C16.2728 11.5752 17.2234 10.7585 17.9665 9.75557C18.3695 9.21173 18.7074 8.61098 18.933 7.96628C19.0665 7.58527 19.0963 7.05693 19.3339 6.70248C19.608 6.87449 19.8093 7.0389 19.8784 7.17866C20.2044 7.83854 19.2375 9.77043 18.4465 10.9315V10.9315Z" fill="#C91B16"/>
<path style="mix-blend-mode:lighten" d="M7.57884 15.482C8.74028 15.2834 9.86429 14.8768 10.8806 14.2524C11.9585 13.59 12.9441 12.7827 13.9631 12.028C14.7446 11.4491 15.5497 10.8983 16.2648 10.2346C16.98 9.57092 17.6098 8.78109 17.9484 7.85309C18.0515 7.57011 18.1273 7.25803 18.0454 6.96746C17.9469 6.61776 17.639 6.37113 17.3161 6.22347C16.7059 5.9446 15.9821 5.9427 15.3707 6.21905C14.9076 6.42836 14.5141 6.7945 14.2581 7.24317C13.9843 7.72314 13.9309 8.30745 13.6236 8.76876C13.3017 9.25221 12.8557 9.63637 12.4208 10.0069C11.0153 11.204 9.65066 12.611 7.99474 13.4189C7.54722 13.6371 6.86828 14.0225 6.36459 14.0225C5.68074 14.2015 4.97939 14.2979 4.28878 14.4516C3.22647 14.6877 2.2102 14.3289 1.47693 14.4032C1.41861 14.4092 1.36889 14.493 1.41555 14.5297C1.68596 14.7431 2.52144 15.0719 2.70468 15.1304C4.2762 15.6325 5.96373 15.7587 7.57853 15.4823L7.57884 15.482Z" fill="url(#paint0_linear_171_704)"/>
<path style="mix-blend-mode:lighten" d="M11.275 11.6239C12.8001 10.4752 13.6163 9.7091 14.0613 8.96448C14.4386 8.33338 14.5002 7.69943 15.0168 7.0522C15.1777 6.85047 15.3437 6.63957 15.573 6.52828C15.8023 6.41698 16.3087 6.47547 16.4557 6.68795C16.9923 7.4645 16.3977 8.6113 16.0874 9.15419C15.6801 9.86687 14.1332 11.229 13.325 11.5888C12.6924 11.8705 11.6675 12.569 11.1457 12.9168C10.7341 13.1909 10.0414 13.6605 9.4318 13.5286C9.08926 13.4543 9.50547 13.1141 9.65126 12.9905C10.1899 12.5348 10.7099 12.0495 11.275 11.6239V11.6239Z" fill="url(#paint1_linear_171_704)"/>
<path opacity="0.6" d="M15.0711 7.48409C14.9916 7.64124 14.9385 7.8085 14.9201 7.91822C14.8691 8.22491 15.2362 8.13259 15.3931 8.03868C15.5846 7.92422 15.9996 7.27067 15.673 7.10183C15.4229 6.97251 15.2077 7.21376 15.0708 7.48409H15.0711Z" fill="#FFD4D4"/>
<path opacity="0.6" d="M15.2125 8.0063C15.6422 8.16439 15.4044 8.55266 14.8749 9.17618C13.8006 10.4409 13.0517 10.7422 13.0026 10.7255C12.9535 10.7087 13.6164 10.2828 14.2303 9.36589C14.6797 8.69463 14.9838 7.92219 15.2125 8.0063Z" fill="#FFD4D4"/>
<path d="M19.9349 8.06144C19.8926 8.17495 19.833 8.25115 19.7756 8.26506C19.7548 8.27012 19.7302 8.26127 19.7007 8.23787C19.6958 8.23408 19.6909 8.22997 19.686 8.22522C19.5737 8.12468 19.3966 7.83695 19.1114 7.35382C18.9604 7.09802 18.7763 6.78595 18.7001 6.70532C18.6906 6.6952 18.6826 6.68856 18.6768 6.68635C18.6658 6.68477 18.6443 6.68856 18.6151 6.69615C18.5243 6.71987 18.3604 6.77994 18.2112 6.83464C17.7974 6.98578 17.4969 7.0898 17.3969 7.0487C17.3929 7.04712 17.3892 7.04522 17.3855 7.04301C17.3257 7.00728 17.2839 6.89092 17.2456 6.71386C17.2238 6.61458 17.2032 6.49632 17.1808 6.36258C17.1516 6.18962 17.1194 5.9977 17.0844 5.91107C17.0764 5.89115 17.0685 5.8766 17.0602 5.86933C17.047 5.85731 17.0074 5.84973 16.9515 5.8453C16.8478 5.83676 16.6885 5.83866 16.5418 5.84024C16.0577 5.84562 15.6989 5.83929 15.5902 5.71977C15.5872 5.7163 15.5841 5.71282 15.5813 5.70902C15.5749 5.70017 15.5697 5.691 15.5657 5.6812C15.5451 5.63061 15.5531 5.568 15.5893 5.49528C15.5918 5.48991 15.5945 5.48453 15.5976 5.47916C15.6108 5.45481 15.6277 5.42888 15.6476 5.40232C15.8659 5.10985 16.4647 4.70229 17.1041 4.59985C17.5289 4.53187 17.8502 4.19703 18.0789 3.84353C18.2551 3.57161 18.4177 3.27124 18.4929 2.94652C18.5761 2.58859 18.5289 2.22024 18.4708 1.862C18.3917 1.37255 17.9908 0.914079 17.6799 0.546355C17.6633 0.526752 17.6458 0.505884 17.6406 0.480273C17.6357 0.456559 17.6418 0.432213 17.6479 0.408815C17.6713 0.320916 17.7164 0.179265 17.7904 0.0882035C17.8438 0.0214884 17.9128 -0.0183509 18 0.00852486C18.3244 0.109072 18.8812 1.03138 18.9708 1.51894C19.0728 2.07384 19.0276 3.24752 18.9914 4.19039L18.9905 4.21378C18.9868 4.30674 18.9828 4.39275 18.9788 4.47274C18.9441 5.19586 18.9325 5.43932 19.5531 6.37206C20.0316 7.09107 20.0642 7.71617 19.9349 8.06144V8.06144Z" fill="#4F970F"/>
<path opacity="0.5" d="M19.9349 8.06144C19.8926 8.17495 19.833 8.25115 19.7756 8.26506C19.7548 8.27012 19.7302 8.26127 19.7007 8.23787C19.6958 8.23408 19.6909 8.22997 19.686 8.22522C19.5737 8.12468 19.3966 7.83695 19.1114 7.35382C18.9604 7.09802 18.7763 6.78595 18.7001 6.70532C18.6906 6.6952 18.6826 6.68856 18.6768 6.68635C18.6658 6.68477 18.6443 6.68856 18.6151 6.69615C18.5243 6.71987 18.3604 6.77994 18.2112 6.83464C17.7974 6.98578 17.4969 7.0898 17.3969 7.0487C17.3929 7.04712 17.3892 7.04522 17.3855 7.04301C17.3257 7.00728 17.2839 6.89092 17.2456 6.71386C17.2238 6.61458 17.2032 6.49632 17.1808 6.36258C17.1516 6.18962 17.1194 5.9977 17.0844 5.91107C17.0764 5.89115 17.0685 5.8766 17.0602 5.86933C17.047 5.85731 17.0074 5.84973 16.9515 5.8453C16.8478 5.83676 16.6885 5.83866 16.5418 5.84024C16.0577 5.84562 15.6989 5.83929 15.5902 5.71977C15.5872 5.7163 15.5841 5.71282 15.5813 5.70902C15.5749 5.70017 15.5697 5.691 15.5657 5.6812C15.5451 5.63061 15.5531 5.568 15.5893 5.49528C15.5918 5.48991 15.5945 5.48453 15.5976 5.47916C15.6108 5.45481 15.6277 5.42888 15.6476 5.40232C15.6476 5.50066 15.6578 5.59172 15.6885 5.64452C15.8201 5.87091 16.2934 5.64421 16.4794 5.61859C16.7578 5.58002 17.078 5.63598 17.2827 5.84814C17.4555 6.02679 17.473 6.34361 17.6863 6.46755C17.8619 6.56936 18.081 6.48684 18.2631 6.39831C18.4454 6.30946 18.6547 6.21397 18.8404 6.29491C18.9788 6.35499 19.0635 6.4979 19.1808 6.59497C19.2057 6.61584 19.2351 6.63544 19.267 6.63323C19.3137 6.63007 19.3468 6.58074 19.3499 6.533C19.3622 6.34266 19.1805 6.1305 19.0952 5.97304C19.02 5.83423 18.9451 5.69416 18.8849 5.54745C18.8051 5.35268 18.7729 5.15981 18.7885 4.94891C18.8192 4.53787 18.7885 4.03198 18.8806 2.704C18.9727 1.37602 18.6964 1.34441 18.5737 0.901747C18.4616 0.497663 17.8892 0.146381 17.7904 0.0882035C17.8438 0.0214884 17.9128 -0.0183509 18 0.00852486C18.3244 0.109072 18.8812 1.03138 18.9708 1.51894C19.0728 2.07384 19.0276 3.24752 18.9914 4.19039L18.9905 4.21378C18.9868 4.30674 18.9828 4.39275 18.9788 4.47274C18.9441 5.19586 18.9325 5.43932 19.5531 6.37206C20.0316 7.09107 20.0642 7.71617 19.9349 8.06144V8.06144Z" fill="#3F720E"/>
<path d="M18.4202 3.87388C18.4868 3.89095 18.3588 4.34816 18.4202 4.60111C18.4815 4.85405 18.635 5.32833 18.5736 5.39157C18.5122 5.45481 18.236 4.94891 18.0825 5.01215C17.9291 5.07538 18.4815 5.86585 18.1746 6.02394C17.8677 6.18203 17.3152 5.07538 16.5172 5.20186C16.3023 5.17024 17.1617 4.82244 17.6221 4.60111C18.0825 4.37978 18.2974 3.84226 18.4202 3.87388V3.87388Z" fill="url(#paint2_linear_171_704)"/>
<path d="M17.1172 4.92867C17.0546 4.94891 16.9914 4.97231 16.9411 5.01531C16.9294 5.02543 16.9177 5.03776 16.9162 5.05325C16.9128 5.08803 16.957 5.10352 16.9908 5.1089C17.0479 5.11807 17.1047 5.13325 17.1562 5.16044C17.2176 5.193 17.2698 5.2417 17.3299 5.27616C17.3904 5.31062 17.4656 5.33023 17.5279 5.29924C17.5657 5.28059 17.5933 5.24581 17.6188 5.21166C17.6716 5.1402 17.7201 5.06527 17.7637 4.98748C17.7913 4.93816 17.8174 4.8863 17.8229 4.82971C17.8278 4.77943 17.8075 4.67889 17.7443 4.68205C17.7188 4.68331 17.6771 4.72379 17.6541 4.73675C17.6206 4.7554 17.5862 4.77185 17.5513 4.78671C17.4107 4.84678 17.2618 4.88188 17.1169 4.92867H17.1172Z" fill="#84C93D"/>
<path style="mix-blend-mode:lighten" opacity="0.5" d="M18.3794 0.748391C18.2646 0.574173 18.1 0.432206 17.9051 0.368652C17.8929 0.439794 17.8812 0.517575 17.9153 0.580496C17.9248 0.598203 17.9374 0.613696 17.9503 0.628873C18.0248 0.716456 18.1228 0.767045 18.1746 0.870438C18.314 1.14868 18.4644 1.52178 18.543 1.56604C18.543 1.18662 18.543 0.996912 18.3794 0.748707V0.748391Z" fill="url(#paint3_linear_171_704)"/>
</g>
<g clip-path="url(#clip1_171_704)">
<path d="M36.4465 10.9315C35.6258 12.1361 32.8904 14.0696 29.3078 15.9768C27.9527 16.6984 26.5291 17.0414 25.0764 16.9962C23.8477 16.9576 22.8327 16.6592 22.0914 16.441C21.8492 16.3698 21.6399 16.3082 21.4637 16.2677C20.9419 16.1482 20.1552 15.8127 19.305 15.3479C18.7415 15.0397 18.1252 14.6564 18.018 14.5116C18.011 14.5021 18.0064 14.4936 18.0039 14.4863C17.9984 14.4705 17.9987 14.4544 18.0048 14.4408C18.0067 14.4364 18.0091 14.4319 18.0122 14.4282C18.0975 14.3181 18.3247 14.026 20.6506 14.1186C23.5352 14.2334 26.4217 12.6427 28.6577 10.8828C29.3118 10.368 29.9217 9.79035 30.456 9.14439C31.0082 8.47692 31.3477 7.74527 31.7823 7.00792C32.2753 6.17162 33.4257 5.58984 34.3188 5.33404C34.3281 5.33151 34.3379 5.33183 34.3471 5.33531C34.4496 5.37325 36.3551 6.08688 37.3339 6.70217C37.608 6.87418 37.8093 7.03859 37.8784 7.17835C38.2044 7.83823 37.2375 9.77012 36.4465 10.9311V10.9315Z" fill="#FF2311"/>
<path opacity="0.6" d="M36.4465 10.9315C35.6258 12.1361 32.8904 14.0696 29.3078 15.9768C27.9527 16.6984 26.5291 17.0414 25.0764 16.9962C23.8477 16.9576 22.8327 16.6591 22.0914 16.441C21.8492 16.3698 21.6399 16.3082 21.4637 16.2677C20.9419 16.1482 20.1552 15.8127 19.305 15.3479C18.7415 15.0396 18.1252 14.6564 18.018 14.5116C18.011 14.5021 18.0064 14.4936 18.0039 14.4863C17.9984 14.4705 17.9987 14.4544 18.0048 14.4408C19.3422 14.7728 21.3216 15.8548 22.5159 16.1419C26.8502 17.1831 29.8388 14.7788 31.4137 13.8027C32.0886 13.3844 32.7077 12.8785 33.3201 12.3685C34.2728 11.5752 35.2234 10.7585 35.9665 9.75557C36.3695 9.21173 36.7074 8.61098 36.933 7.96628C37.0665 7.58527 37.0963 7.05693 37.3339 6.70248C37.608 6.87449 37.8093 7.0389 37.8784 7.17866C38.2044 7.83854 37.2375 9.77043 36.4465 10.9315Z" fill="#C91B16"/>
<path style="mix-blend-mode:lighten" d="M25.5788 15.482C26.7403 15.2834 27.8643 14.8768 28.8806 14.2524C29.9585 13.59 30.9441 12.7827 31.9631 12.028C32.7446 11.4491 33.5497 10.8983 34.2648 10.2346C34.98 9.57092 35.6098 8.78109 35.9484 7.85309C36.0515 7.57011 36.1273 7.25803 36.0454 6.96746C35.9469 6.61776 35.639 6.37113 35.3161 6.22347C34.7059 5.9446 33.9822 5.9427 33.3707 6.21905C32.9076 6.42836 32.5141 6.7945 32.2581 7.24317C31.9843 7.72314 31.9309 8.30745 31.6236 8.76876C31.3017 9.25221 30.8557 9.63637 30.4208 10.0069C29.0153 11.204 27.6507 12.611 25.9947 13.4189C25.5472 13.6371 24.8683 14.0225 24.3646 14.0225C23.6807 14.2015 22.9794 14.2979 22.2888 14.4516C21.2265 14.6877 20.2102 14.3289 19.4769 14.4032C19.4186 14.4092 19.3689 14.493 19.4155 14.5297C19.686 14.7431 20.5214 15.0719 20.7047 15.1304C22.2762 15.6325 23.9637 15.7587 25.5785 15.4823L25.5788 15.482Z" fill="url(#paint4_linear_171_704)"/>
<path style="mix-blend-mode:lighten" d="M29.275 11.6239C30.8001 10.4752 31.6163 9.7091 32.0613 8.96448C32.4386 8.33338 32.5002 7.69943 33.0168 7.0522C33.1777 6.85047 33.3437 6.63957 33.573 6.52828C33.8023 6.41698 34.3087 6.47547 34.4557 6.68795C34.9923 7.4645 34.3977 8.6113 34.0874 9.15419C33.6801 9.86687 32.1332 11.229 31.325 11.5888C30.6924 11.8705 29.6675 12.569 29.1457 12.9168C28.7341 13.1909 28.0414 13.6605 27.4318 13.5286C27.0893 13.4543 27.5055 13.1141 27.6513 12.9905C28.1899 12.5348 28.7099 12.0495 29.275 11.6239Z" fill="url(#paint5_linear_171_704)"/>
<path opacity="0.6" d="M33.0711 7.48409C32.9916 7.64124 32.9385 7.8085 32.9201 7.91822C32.8691 8.22491 33.2362 8.13259 33.3931 8.03868C33.5846 7.92422 33.9996 7.27067 33.673 7.10183C33.4229 6.97251 33.2077 7.21376 33.0708 7.48409H33.0711Z" fill="#FFD4D4"/>
<path opacity="0.6" d="M32.921 8.36372C33.3507 8.52181 33.1128 8.91009 32.5834 9.5336C31.5091 10.7983 30.7602 11.0997 30.7111 11.0829C30.662 11.0662 31.3249 10.6403 31.9388 9.72331C32.3882 9.05205 32.6923 8.27961 32.921 8.36372Z" fill="#FFD4D4"/>
<path d="M37.9349 8.06144C37.8926 8.17495 37.833 8.25115 37.7756 8.26506C37.7548 8.27012 37.7302 8.26127 37.7007 8.23787C37.6958 8.23408 37.6909 8.22997 37.686 8.22522C37.5737 8.12468 37.3966 7.83695 37.1114 7.35382C36.9604 7.09802 36.7763 6.78595 36.7001 6.70532C36.6906 6.6952 36.6826 6.68856 36.6768 6.68635C36.6658 6.68477 36.6443 6.68856 36.6151 6.69615C36.5243 6.71987 36.3604 6.77994 36.2112 6.83464C35.7974 6.98578 35.4969 7.0898 35.3969 7.0487C35.3929 7.04712 35.3892 7.04522 35.3855 7.04301C35.3257 7.00728 35.2839 6.89092 35.2456 6.71386C35.2238 6.61458 35.2032 6.49632 35.1808 6.36258C35.1516 6.18962 35.1194 5.9977 35.0844 5.91107C35.0764 5.89115 35.0685 5.8766 35.0602 5.86933C35.047 5.85731 35.0074 5.84973 34.9515 5.8453C34.8478 5.83676 34.6885 5.83866 34.5418 5.84024C34.0577 5.84562 33.6989 5.83929 33.5902 5.71977C33.5872 5.7163 33.5841 5.71282 33.5813 5.70902C33.5749 5.70017 33.5697 5.691 33.5657 5.6812C33.5451 5.63061 33.5531 5.56801 33.5893 5.49528C33.5918 5.48991 33.5945 5.48453 33.5976 5.47916C33.6108 5.45481 33.6277 5.42888 33.6476 5.40232C33.8659 5.10985 34.4647 4.70229 35.1041 4.59985C35.5289 4.53187 35.8502 4.19703 36.0789 3.84353C36.2551 3.57161 36.4177 3.27124 36.4929 2.94652C36.5761 2.58859 36.5289 2.22024 36.4708 1.862C36.3917 1.37255 35.9908 0.914079 35.6799 0.546355C35.6633 0.526752 35.6458 0.505884 35.6406 0.480273C35.6357 0.456559 35.6418 0.432213 35.6479 0.408815C35.6713 0.320916 35.7164 0.179265 35.7904 0.0882035C35.8438 0.0214884 35.9128 -0.0183509 36 0.00852486C36.3244 0.109072 36.8812 1.03138 36.9708 1.51894C37.0728 2.07384 37.0276 3.24752 36.9914 4.19039L36.9905 4.21378C36.9868 4.30674 36.9828 4.39275 36.9788 4.47274C36.9441 5.19586 36.9325 5.43932 37.5531 6.37206C38.0316 7.09107 38.0642 7.71617 37.9349 8.06144Z" fill="#4F970F"/>
<path opacity="0.5" d="M37.9349 8.06144C37.8926 8.17495 37.833 8.25115 37.7756 8.26506C37.7548 8.27012 37.7302 8.26127 37.7007 8.23787C37.6958 8.23408 37.6909 8.22997 37.686 8.22522C37.5737 8.12468 37.3966 7.83695 37.1114 7.35382C36.9604 7.09802 36.7763 6.78595 36.7001 6.70532C36.6906 6.6952 36.6826 6.68856 36.6768 6.68635C36.6658 6.68477 36.6443 6.68856 36.6151 6.69615C36.5243 6.71987 36.3604 6.77994 36.2112 6.83464C35.7974 6.98578 35.4969 7.0898 35.3969 7.0487C35.3929 7.04712 35.3892 7.04522 35.3855 7.04301C35.3257 7.00728 35.2839 6.89092 35.2456 6.71386C35.2238 6.61458 35.2032 6.49632 35.1808 6.36258C35.1516 6.18962 35.1194 5.9977 35.0844 5.91107C35.0764 5.89115 35.0685 5.8766 35.0602 5.86933C35.047 5.85731 35.0074 5.84973 34.9515 5.8453C34.8478 5.83676 34.6885 5.83866 34.5418 5.84024C34.0577 5.84562 33.6989 5.83929 33.5902 5.71977C33.5872 5.7163 33.5841 5.71282 33.5813 5.70902C33.5749 5.70017 33.5697 5.691 33.5657 5.6812C33.5451 5.63061 33.5531 5.56801 33.5893 5.49528C33.5918 5.48991 33.5945 5.48453 33.5976 5.47916C33.6108 5.45481 33.6277 5.42888 33.6476 5.40232C33.6476 5.50066 33.6578 5.59172 33.6885 5.64452C33.8201 5.87091 34.2934 5.64421 34.4794 5.61859C34.7578 5.58002 35.078 5.63598 35.2827 5.84815C35.4555 6.02679 35.473 6.34361 35.6863 6.46755C35.8619 6.56936 36.081 6.48684 36.2631 6.39831C36.4454 6.30946 36.6547 6.21397 36.8404 6.29491C36.9788 6.35499 37.0635 6.4979 37.1808 6.59497C37.2057 6.61584 37.2351 6.63545 37.267 6.63323C37.3137 6.63007 37.3468 6.58075 37.3499 6.533C37.3622 6.34266 37.1805 6.1305 37.0952 5.97304C37.02 5.83423 36.9451 5.69416 36.8849 5.54745C36.8051 5.35268 36.7729 5.15981 36.7885 4.94892C36.8192 4.53787 36.7885 4.03198 36.8806 2.704C36.9727 1.37602 36.6964 1.34441 36.5737 0.901747C36.4616 0.497663 35.8892 0.146381 35.7904 0.0882035C35.8438 0.0214884 35.9128 -0.0183509 36 0.00852486C36.3244 0.109072 36.8812 1.03138 36.9708 1.51894C37.0728 2.07384 37.0276 3.24752 36.9914 4.19039L36.9905 4.21378C36.9868 4.30674 36.9828 4.39275 36.9788 4.47274C36.9441 5.19586 36.9325 5.43932 37.5531 6.37206C38.0316 7.09107 38.0642 7.71617 37.9349 8.06144Z" fill="#3F720E"/>
<path d="M36.4202 3.87388C36.4868 3.89095 36.3588 4.34816 36.4202 4.60111C36.4815 4.85405 36.635 5.32833 36.5736 5.39157C36.5122 5.45481 36.236 4.94891 36.0825 5.01215C35.9291 5.07538 36.4815 5.86585 36.1746 6.02394C35.8677 6.18203 35.3152 5.07538 34.5172 5.20186C34.3023 5.17024 35.1617 4.82244 35.6221 4.60111C36.0825 4.37978 36.2974 3.84226 36.4202 3.87388Z" fill="url(#paint6_linear_171_704)"/>
<path d="M35.1172 4.92867C35.0546 4.94891 34.9914 4.97231 34.9411 5.01531C34.9294 5.02543 34.9177 5.03776 34.9162 5.05325C34.9128 5.08803 34.957 5.10352 34.9908 5.1089C35.0479 5.11807 35.1047 5.13325 35.1562 5.16044C35.2176 5.193 35.2698 5.2417 35.3299 5.27616C35.3904 5.31062 35.4656 5.33023 35.5279 5.29924C35.5657 5.28059 35.5933 5.24581 35.6188 5.21166C35.6716 5.1402 35.7201 5.06527 35.7637 4.98748C35.7913 4.93816 35.8174 4.8863 35.8229 4.82971C35.8278 4.77943 35.8075 4.67889 35.7443 4.68205C35.7188 4.68331 35.6771 4.72379 35.6541 4.73675C35.6206 4.7554 35.5862 4.77185 35.5513 4.78671C35.4107 4.84678 35.2618 4.88188 35.1169 4.92867H35.1172Z" fill="#84C93D"/>
<path style="mix-blend-mode:lighten" opacity="0.5" d="M36.3794 0.748391C36.2646 0.574173 36.1 0.432206 35.9051 0.368652C35.8929 0.439794 35.8812 0.517575 35.9153 0.580496C35.9248 0.598203 35.9374 0.613696 35.9503 0.628873C36.0248 0.716456 36.1228 0.767045 36.1746 0.870438C36.314 1.14868 36.4644 1.52178 36.543 1.56604C36.543 1.18662 36.543 0.996912 36.3794 0.748707V0.748391Z" fill="url(#paint7_linear_171_704)"/>
</g>
<defs>
<linearGradient id="paint0_linear_171_704" x1="16.5644" y1="8.56514" x2="2.76039" y2="14.965" gradientUnits="userSpaceOnUse">
<stop stop-color="#FE492E"/>
<stop offset="0.44" stop-color="#FC482D"/>
<stop offset="0.6" stop-color="#F5462C"/>
<stop offset="0.71" stop-color="#E9432B"/>
<stop offset="0.81" stop-color="#D83F28"/>
<stop offset="0.89" stop-color="#C23925"/>
<stop offset="0.95" stop-color="#A83222"/>
<stop offset="1" stop-color="#912C1F"/>
</linearGradient>
<linearGradient id="paint1_linear_171_704" x1="16.271" y1="7.191" x2="10.1881" y2="13.7493" gradientUnits="userSpaceOnUse">
<stop stop-color="#FE7147"/>
<stop offset="0.31" stop-color="#FB7046"/>
<stop offset="0.48" stop-color="#F36C44"/>
<stop offset="0.6" stop-color="#E66742"/>
<stop offset="0.72" stop-color="#D3603E"/>
<stop offset="0.81" stop-color="#BA5639"/>
<stop offset="0.91" stop-color="#9C4A33"/>
<stop offset="0.99" stop-color="#783C2C"/>
<stop offset="1" stop-color="#733A2B"/>
</linearGradient>
<linearGradient id="paint2_linear_171_704" x1="17.5537" y1="4.32634" x2="17.5211" y2="5.90723" gradientUnits="userSpaceOnUse">
<stop stop-color="#6DB528"/>
<stop offset="0.87" stop-color="#539B12"/>
<stop offset="1" stop-color="#4F970F"/>
</linearGradient>
<linearGradient id="paint3_linear_171_704" x1="18.0546" y1="0.537811" x2="18.4971" y2="1.18463" gradientUnits="userSpaceOnUse">
<stop stop-color="#76BC33"/>
<stop offset="0.43" stop-color="#74BA32"/>
<stop offset="0.59" stop-color="#70B330"/>
<stop offset="0.7" stop-color="#69A72D"/>
<stop offset="0.79" stop-color="#5E9628"/>
<stop offset="0.87" stop-color="#508022"/>
<stop offset="0.93" stop-color="#3F661B"/>
<stop offset="0.99" stop-color="#2C4612"/>
<stop offset="1" stop-color="#2A4312"/>
</linearGradient>
<linearGradient id="paint4_linear_171_704" x1="34.5644" y1="8.56514" x2="20.7604" y2="14.965" gradientUnits="userSpaceOnUse">
<stop stop-color="#FE492E"/>
<stop offset="0.44" stop-color="#FC482D"/>
<stop offset="0.6" stop-color="#F5462C"/>
<stop offset="0.71" stop-color="#E9432B"/>
<stop offset="0.81" stop-color="#D83F28"/>
<stop offset="0.89" stop-color="#C23925"/>
<stop offset="0.95" stop-color="#A83222"/>
<stop offset="1" stop-color="#912C1F"/>
</linearGradient>
<linearGradient id="paint5_linear_171_704" x1="34.271" y1="7.191" x2="28.1881" y2="13.7493" gradientUnits="userSpaceOnUse">
<stop stop-color="#FE7147"/>
<stop offset="0.31" stop-color="#FB7046"/>
<stop offset="0.48" stop-color="#F36C44"/>
<stop offset="0.6" stop-color="#E66742"/>
<stop offset="0.72" stop-color="#D3603E"/>
<stop offset="0.81" stop-color="#BA5639"/>
<stop offset="0.91" stop-color="#9C4A33"/>
<stop offset="0.99" stop-color="#783C2C"/>
<stop offset="1" stop-color="#733A2B"/>
</linearGradient>
<linearGradient id="paint6_linear_171_704" x1="35.5537" y1="4.32634" x2="35.5211" y2="5.90723" gradientUnits="userSpaceOnUse">
<stop stop-color="#6DB528"/>
<stop offset="0.87" stop-color="#539B12"/>
<stop offset="1" stop-color="#4F970F"/>
</linearGradient>
<linearGradient id="paint7_linear_171_704" x1="36.0546" y1="0.537811" x2="36.4971" y2="1.18463" gradientUnits="userSpaceOnUse">
<stop stop-color="#76BC33"/>
<stop offset="0.43" stop-color="#74BA32"/>
<stop offset="0.59" stop-color="#70B330"/>
<stop offset="0.7" stop-color="#69A72D"/>
<stop offset="0.79" stop-color="#5E9628"/>
<stop offset="0.87" stop-color="#508022"/>
<stop offset="0.93" stop-color="#3F661B"/>
<stop offset="0.99" stop-color="#2C4612"/>
<stop offset="1" stop-color="#2A4312"/>
</linearGradient>
<clipPath id="clip0_171_704">
<rect width="20" height="17" fill="white"/>
</clipPath>
<clipPath id="clip1_171_704">
<rect width="20" height="17" fill="white" transform="translate(18)"/>
</clipPath>
</defs>
</svg>
