<svg width="20" height="17" viewBox="0 0 20 17" fill="none" xmlns="http://www.w3.org/2000/svg">
<g clip-path="url(#clip0_171_705)">
<path d="M18.4465 10.9315C17.6258 12.1361 14.8904 14.0696 11.3078 15.9768C9.95267 16.6984 8.52909 17.0414 7.07636 16.9962C5.84769 16.9576 4.83265 16.6592 4.0914 16.441C3.84923 16.3698 3.6399 16.3082 3.46372 16.2677C2.94192 16.1482 2.15525 15.8127 1.30503 15.3479C0.741495 15.0397 0.125166 14.6564 0.0180447 14.5116C0.0109851 14.5021 0.00638105 14.4936 0.00392556 14.4863C-0.0015993 14.4705 -0.00129237 14.4544 0.00484637 14.4408C0.00668799 14.4364 0.00914348 14.4319 0.0122129 14.4282C0.0975413 14.3181 0.324675 14.026 2.65064 14.1186C5.53523 14.2334 8.42167 12.6427 10.6577 10.8828C11.3118 10.368 11.9217 9.79035 12.456 9.14439C13.0082 8.47692 13.3477 7.74527 13.7823 7.00792C14.2753 6.17162 15.4257 5.58984 16.3188 5.33404C16.3281 5.33151 16.3379 5.33183 16.3471 5.33531C16.4496 5.37325 18.3551 6.08688 19.3339 6.70217C19.608 6.87418 19.8093 7.03859 19.8784 7.17835C20.2044 7.83823 19.2375 9.77012 18.4465 10.9311V10.9315Z" fill="#FF2311"/>
<path opacity="0.6" d="M18.4465 10.9315C17.6258 12.1361 14.8904 14.0696 11.3078 15.9768C9.95267 16.6984 8.52909 17.0414 7.07636 16.9962C5.84769 16.9576 4.83265 16.6591 4.0914 16.441C3.84923 16.3698 3.6399 16.3082 3.46372 16.2677C2.94192 16.1482 2.15525 15.8127 1.30503 15.3479C0.741495 15.0396 0.125166 14.6564 0.0180447 14.5116C0.0109851 14.5021 0.00638105 14.4936 0.00392556 14.4863C-0.0015993 14.4705 -0.00129237 14.4544 0.00484637 14.4408C1.34217 14.7728 3.32161 15.8548 4.5159 16.1419C8.85015 17.1831 11.8388 14.7788 13.4137 13.8027C14.0886 13.3844 14.7077 12.8785 15.3201 12.3685C16.2728 11.5752 17.2234 10.7585 17.9665 9.75557C18.3695 9.21173 18.7074 8.61098 18.933 7.96628C19.0665 7.58527 19.0963 7.05693 19.3339 6.70248C19.608 6.87449 19.8093 7.0389 19.8784 7.17866C20.2044 7.83854 19.2375 9.77043 18.4465 10.9315Z" fill="#C91B16"/>
<path style="mix-blend-mode:lighten" d="M7.57884 15.482C8.74028 15.2834 9.86429 14.8768 10.8806 14.2524C11.9585 13.59 12.9441 12.7827 13.9631 12.028C14.7446 11.4491 15.5497 10.8983 16.2648 10.2346C16.98 9.57092 17.6098 8.78109 17.9484 7.85309C18.0515 7.57011 18.1273 7.25803 18.0454 6.96746C17.9469 6.61776 17.639 6.37113 17.3161 6.22347C16.7059 5.9446 15.9822 5.9427 15.3707 6.21905C14.9076 6.42836 14.5141 6.7945 14.2581 7.24317C13.9843 7.72314 13.9309 8.30745 13.6236 8.76876C13.3017 9.25221 12.8557 9.63637 12.4208 10.0069C11.0153 11.204 9.65066 12.611 7.99474 13.4189C7.54722 13.6371 6.86828 14.0225 6.36459 14.0225C5.68074 14.2015 4.97939 14.2979 4.28878 14.4516C3.22647 14.6877 2.2102 14.3289 1.47693 14.4032C1.41861 14.4092 1.36889 14.493 1.41555 14.5297C1.68596 14.7431 2.52144 15.0719 2.70468 15.1304C4.2762 15.6325 5.96373 15.7587 7.57853 15.4823L7.57884 15.482Z" fill="url(#paint0_linear_171_705)"/>
<path style="mix-blend-mode:lighten" d="M11.275 11.6239C12.8001 10.4752 13.6163 9.7091 14.0613 8.96448C14.4386 8.33338 14.5002 7.69943 15.0168 7.0522C15.1777 6.85047 15.3437 6.63957 15.573 6.52828C15.8023 6.41698 16.3087 6.47547 16.4557 6.68795C16.9923 7.4645 16.3977 8.6113 16.0874 9.15419C15.6801 9.86687 14.1332 11.229 13.325 11.5888C12.6924 11.8705 11.6675 12.569 11.1457 12.9168C10.7341 13.1909 10.0414 13.6605 9.4318 13.5286C9.08926 13.4543 9.50547 13.1141 9.65126 12.9905C10.1899 12.5348 10.7099 12.0495 11.275 11.6239Z" fill="url(#paint1_linear_171_705)"/>
<path opacity="0.6" d="M15.0711 7.48409C14.9916 7.64124 14.9385 7.8085 14.9201 7.91822C14.8691 8.22491 15.2362 8.13259 15.3931 8.03868C15.5846 7.92422 15.9996 7.27067 15.673 7.10183C15.4229 6.97251 15.2077 7.21376 15.0708 7.48409H15.0711Z" fill="#FFD4D4"/>
<path opacity="0.6" d="M15.2125 8.0063C15.6422 8.16439 15.4044 8.55266 14.8749 9.17618C13.8006 10.4409 13.0517 10.7422 13.0026 10.7255C12.9535 10.7087 13.6164 10.2828 14.2303 9.36589C14.6797 8.69463 14.9838 7.92219 15.2125 8.0063Z" fill="#FFD4D4"/>
<path d="M19.9349 8.06144C19.8926 8.17495 19.833 8.25115 19.7756 8.26506C19.7548 8.27012 19.7302 8.26127 19.7007 8.23787C19.6958 8.23408 19.6909 8.22997 19.686 8.22522C19.5737 8.12468 19.3966 7.83695 19.1114 7.35382C18.9604 7.09802 18.7763 6.78595 18.7001 6.70532C18.6906 6.6952 18.6826 6.68856 18.6768 6.68635C18.6658 6.68477 18.6443 6.68856 18.6151 6.69615C18.5243 6.71987 18.3604 6.77994 18.2112 6.83464C17.7974 6.98578 17.4969 7.0898 17.3969 7.0487C17.3929 7.04712 17.3892 7.04522 17.3855 7.04301C17.3257 7.00728 17.2839 6.89092 17.2456 6.71386C17.2238 6.61458 17.2032 6.49632 17.1808 6.36258C17.1516 6.18962 17.1194 5.9977 17.0844 5.91107C17.0764 5.89115 17.0685 5.8766 17.0602 5.86933C17.047 5.85731 17.0074 5.84973 16.9515 5.8453C16.8478 5.83676 16.6885 5.83866 16.5418 5.84024C16.0577 5.84562 15.6989 5.83929 15.5902 5.71977C15.5872 5.7163 15.5841 5.71282 15.5813 5.70902C15.5749 5.70017 15.5697 5.691 15.5657 5.6812C15.5451 5.63061 15.5531 5.56801 15.5893 5.49528C15.5918 5.48991 15.5945 5.48453 15.5976 5.47916C15.6108 5.45481 15.6277 5.42888 15.6476 5.40232C15.8659 5.10985 16.4647 4.70229 17.1041 4.59985C17.5289 4.53187 17.8502 4.19703 18.0789 3.84353C18.2551 3.57161 18.4177 3.27124 18.4929 2.94652C18.5761 2.58859 18.5289 2.22024 18.4708 1.862C18.3917 1.37255 17.9908 0.914079 17.6799 0.546355C17.6633 0.526752 17.6458 0.505884 17.6406 0.480273C17.6357 0.456559 17.6418 0.432213 17.6479 0.408815C17.6713 0.320916 17.7164 0.179265 17.7904 0.0882035C17.8438 0.0214884 17.9128 -0.0183509 18 0.00852486C18.3244 0.109072 18.8812 1.03138 18.9708 1.51894C19.0728 2.07384 19.0276 3.24752 18.9914 4.19039L18.9905 4.21378C18.9868 4.30674 18.9828 4.39275 18.9788 4.47274C18.9441 5.19586 18.9325 5.43932 19.5531 6.37206C20.0316 7.09107 20.0642 7.71617 19.9349 8.06144Z" fill="#4F970F"/>
<path opacity="0.5" d="M19.9349 8.06144C19.8926 8.17495 19.833 8.25115 19.7756 8.26506C19.7548 8.27012 19.7302 8.26127 19.7007 8.23787C19.6958 8.23408 19.6909 8.22997 19.686 8.22522C19.5737 8.12468 19.3966 7.83695 19.1114 7.35382C18.9604 7.09802 18.7763 6.78595 18.7001 6.70532C18.6906 6.6952 18.6826 6.68856 18.6768 6.68635C18.6658 6.68477 18.6443 6.68856 18.6151 6.69615C18.5243 6.71987 18.3604 6.77994 18.2112 6.83464C17.7974 6.98578 17.4969 7.0898 17.3969 7.0487C17.3929 7.04712 17.3892 7.04522 17.3855 7.04301C17.3257 7.00728 17.2839 6.89092 17.2456 6.71386C17.2238 6.61458 17.2032 6.49632 17.1808 6.36258C17.1516 6.18962 17.1194 5.9977 17.0844 5.91107C17.0764 5.89115 17.0685 5.8766 17.0602 5.86933C17.047 5.85731 17.0074 5.84973 16.9515 5.8453C16.8478 5.83676 16.6885 5.83866 16.5418 5.84024C16.0577 5.84562 15.6989 5.83929 15.5902 5.71977C15.5872 5.7163 15.5841 5.71282 15.5813 5.70902C15.5749 5.70017 15.5697 5.691 15.5657 5.6812C15.5451 5.63061 15.5531 5.56801 15.5893 5.49528C15.5918 5.48991 15.5945 5.48453 15.5976 5.47916C15.6108 5.45481 15.6277 5.42888 15.6476 5.40232C15.6476 5.50066 15.6578 5.59172 15.6885 5.64452C15.8201 5.87091 16.2934 5.64421 16.4794 5.61859C16.7578 5.58002 17.078 5.63598 17.2827 5.84815C17.4555 6.02679 17.473 6.34361 17.6863 6.46755C17.8619 6.56936 18.081 6.48684 18.2631 6.39831C18.4454 6.30946 18.6547 6.21397 18.8404 6.29491C18.9788 6.35499 19.0635 6.4979 19.1808 6.59497C19.2057 6.61584 19.2351 6.63545 19.267 6.63323C19.3137 6.63007 19.3468 6.58075 19.3499 6.533C19.3622 6.34266 19.1805 6.1305 19.0952 5.97304C19.02 5.83423 18.9451 5.69416 18.8849 5.54745C18.8051 5.35268 18.7729 5.15981 18.7885 4.94892C18.8192 4.53787 18.7885 4.03198 18.8806 2.704C18.9727 1.37602 18.6964 1.34441 18.5737 0.901747C18.4616 0.497663 17.8892 0.146381 17.7904 0.0882035C17.8438 0.0214884 17.9128 -0.0183509 18 0.00852486C18.3244 0.109072 18.8812 1.03138 18.9708 1.51894C19.0728 2.07384 19.0276 3.24752 18.9914 4.19039L18.9905 4.21378C18.9868 4.30674 18.9828 4.39275 18.9788 4.47274C18.9441 5.19586 18.9325 5.43932 19.5531 6.37206C20.0316 7.09107 20.0642 7.71617 19.9349 8.06144Z" fill="#3F720E"/>
<path d="M18.4202 3.87388C18.4868 3.89095 18.3588 4.34816 18.4202 4.60111C18.4815 4.85405 18.635 5.32833 18.5736 5.39157C18.5122 5.45481 18.236 4.94891 18.0825 5.01215C17.9291 5.07538 18.4815 5.86585 18.1746 6.02394C17.8677 6.18203 17.3152 5.07538 16.5172 5.20186C16.3023 5.17024 17.1617 4.82244 17.6221 4.60111C18.0825 4.37978 18.2974 3.84226 18.4202 3.87388Z" fill="url(#paint2_linear_171_705)"/>
<path d="M17.1172 4.92867C17.0546 4.94891 16.9914 4.97231 16.9411 5.01531C16.9294 5.02543 16.9177 5.03776 16.9162 5.05325C16.9128 5.08803 16.957 5.10352 16.9908 5.1089C17.0479 5.11807 17.1047 5.13325 17.1562 5.16044C17.2176 5.193 17.2698 5.2417 17.3299 5.27616C17.3904 5.31062 17.4656 5.33023 17.5279 5.29924C17.5657 5.28059 17.5933 5.24581 17.6188 5.21166C17.6716 5.1402 17.7201 5.06527 17.7637 4.98748C17.7913 4.93816 17.8174 4.8863 17.8229 4.82971C17.8278 4.77943 17.8075 4.67889 17.7443 4.68205C17.7188 4.68331 17.6771 4.72379 17.6541 4.73675C17.6206 4.7554 17.5862 4.77185 17.5513 4.78671C17.4107 4.84678 17.2618 4.88188 17.1169 4.92867H17.1172Z" fill="#84C93D"/>
<path style="mix-blend-mode:lighten" opacity="0.5" d="M18.3794 0.748391C18.2646 0.574173 18.1 0.432206 17.9051 0.368652C17.8929 0.439794 17.8812 0.517575 17.9153 0.580496C17.9248 0.598203 17.9374 0.613696 17.9503 0.628873C18.0248 0.716456 18.1228 0.767045 18.1746 0.870438C18.314 1.14868 18.4644 1.52178 18.543 1.56604C18.543 1.18662 18.543 0.996912 18.3794 0.748707V0.748391Z" fill="url(#paint3_linear_171_705)"/>
</g>
<defs>
<linearGradient id="paint0_linear_171_705" x1="16.5644" y1="8.56514" x2="2.76039" y2="14.965" gradientUnits="userSpaceOnUse">
<stop stop-color="#FE492E"/>
<stop offset="0.44" stop-color="#FC482D"/>
<stop offset="0.6" stop-color="#F5462C"/>
<stop offset="0.71" stop-color="#E9432B"/>
<stop offset="0.81" stop-color="#D83F28"/>
<stop offset="0.89" stop-color="#C23925"/>
<stop offset="0.95" stop-color="#A83222"/>
<stop offset="1" stop-color="#912C1F"/>
</linearGradient>
<linearGradient id="paint1_linear_171_705" x1="16.271" y1="7.191" x2="10.1881" y2="13.7493" gradientUnits="userSpaceOnUse">
<stop stop-color="#FE7147"/>
<stop offset="0.31" stop-color="#FB7046"/>
<stop offset="0.48" stop-color="#F36C44"/>
<stop offset="0.6" stop-color="#E66742"/>
<stop offset="0.72" stop-color="#D3603E"/>
<stop offset="0.81" stop-color="#BA5639"/>
<stop offset="0.91" stop-color="#9C4A33"/>
<stop offset="0.99" stop-color="#783C2C"/>
<stop offset="1" stop-color="#733A2B"/>
</linearGradient>
<linearGradient id="paint2_linear_171_705" x1="17.5537" y1="4.32634" x2="17.5211" y2="5.90723" gradientUnits="userSpaceOnUse">
<stop stop-color="#6DB528"/>
<stop offset="0.87" stop-color="#539B12"/>
<stop offset="1" stop-color="#4F970F"/>
</linearGradient>
<linearGradient id="paint3_linear_171_705" x1="18.0546" y1="0.537811" x2="18.4971" y2="1.18463" gradientUnits="userSpaceOnUse">
<stop stop-color="#76BC33"/>
<stop offset="0.43" stop-color="#74BA32"/>
<stop offset="0.59" stop-color="#70B330"/>
<stop offset="0.7" stop-color="#69A72D"/>
<stop offset="0.79" stop-color="#5E9628"/>
<stop offset="0.87" stop-color="#508022"/>
<stop offset="0.93" stop-color="#3F661B"/>
<stop offset="0.99" stop-color="#2C4612"/>
<stop offset="1" stop-color="#2A4312"/>
</linearGradient>
<clipPath id="clip0_171_705">
<rect width="20" height="17" fill="white"/>
</clipPath>
</defs>
</svg>
