<svg width="60" height="17" viewBox="0 0 60 17" fill="none" xmlns="http://www.w3.org/2000/svg">
<path d="M38.4463 10.9312C37.6255 12.1359 34.8901 14.0694 31.3075 15.9766C29.9524 16.6981 28.5289 17.0412 27.0761 16.996C25.8475 16.9574 24.8324 16.6589 24.0912 16.4407C23.849 16.3696 23.6397 16.3079 23.4635 16.2675C22.9417 16.148 22.155 15.8125 21.3048 15.3477C20.7413 15.0394 20.1249 14.6562 20.0178 14.5114C20.0107 14.5019 20.0061 14.4934 20.0037 14.4861C19.9982 14.4703 19.9985 14.4542 20.0046 14.4406C20.0064 14.4361 20.0089 14.4317 20.012 14.4279C20.0973 14.3179 20.3244 14.0257 22.6504 14.1184C25.535 14.2331 28.4214 12.6424 30.6575 10.8825C31.3115 10.3678 31.9214 9.79011 32.4558 9.14414C33.008 8.47668 33.3475 7.74502 33.7821 7.00768C34.275 6.17137 35.4254 5.58959 36.3186 5.3338C36.3278 5.33127 36.3376 5.33158 36.3468 5.33506C36.4494 5.373 38.3548 6.08663 39.3336 6.70193C39.6077 6.87393 39.8091 7.03835 39.8781 7.1781C40.2041 7.83798 39.2373 9.76987 38.4463 10.9309V10.9312Z" fill="#FF2311"/>
<path opacity="0.6" d="M38.4463 10.9312C37.6255 12.1359 34.8901 14.0693 31.3075 15.9766C29.9524 16.6981 28.5289 17.0412 27.0761 16.996C25.8475 16.9574 24.8324 16.6589 24.0912 16.4407C23.849 16.3696 23.6397 16.3079 23.4635 16.2675C22.9417 16.1479 22.155 15.8125 21.3048 15.3477C20.7413 15.0394 20.1249 14.6562 20.0178 14.5114C20.0107 14.5019 20.0061 14.4934 20.0037 14.4861C19.9982 14.4703 19.9985 14.4541 20.0046 14.4406C21.3419 14.7725 23.3214 15.8545 24.5157 16.1416C28.8499 17.1828 31.8385 14.7786 33.4134 13.8025C34.0884 13.3842 34.7075 12.8783 35.3198 12.3683C36.2726 11.575 37.2231 10.7583 37.9662 9.75532C38.3692 9.21148 38.7072 8.61073 38.9328 7.96603C39.0663 7.58503 39.0961 7.05668 39.3336 6.70224C39.6077 6.87424 39.8091 7.03866 39.8781 7.17841C40.2041 7.83829 39.2373 9.77018 38.4463 10.9312V10.9312Z" fill="#C91B16"/>
<path style="mix-blend-mode:lighten" d="M27.5786 15.4818C28.74 15.2832 29.864 14.8766 30.8803 14.2521C31.9583 13.5897 32.9438 12.7825 33.9629 12.0278C34.7443 11.4488 35.5494 10.898 36.2646 10.2344C36.9798 9.57068 37.6096 8.78085 37.9481 7.85285C38.0513 7.56986 38.1271 7.25779 38.0451 6.96721C37.9466 6.61751 37.6388 6.37089 37.3159 6.22323C36.7057 5.94435 35.9819 5.94246 35.3705 6.2188C34.9073 6.42812 34.5138 6.79426 34.2578 7.24293C33.9841 7.7229 33.9306 8.3072 33.6234 8.76852C33.3014 9.25197 32.8554 9.63613 32.4205 10.0067C31.0151 11.2038 29.6504 12.6108 27.9945 13.4187C27.547 13.6368 26.868 14.0222 26.3643 14.0222C25.6805 14.2012 24.9791 14.2976 24.2885 14.4513C23.2262 14.6875 22.21 14.3286 21.4767 14.4029C21.4184 14.4089 21.3686 14.4927 21.4153 14.5294C21.6857 14.7428 22.5212 15.0717 22.7044 15.1302C24.276 15.6323 25.9635 15.7584 27.5783 15.4821L27.5786 15.4818Z" fill="url(#paint0_linear_189_1213)"/>
<path style="mix-blend-mode:lighten" d="M31.2747 11.6237C32.7999 10.475 33.616 9.70885 34.0611 8.96424C34.4383 8.33313 34.5 7.69918 35.0166 7.05195C35.1774 6.85023 35.3435 6.63933 35.5727 6.52803C35.802 6.41674 36.3085 6.47523 36.4555 6.68771C36.992 7.46426 36.3975 8.61106 36.0872 9.15395C35.6799 9.86663 34.1329 11.2288 33.3247 11.5886C32.6921 11.8703 31.6673 12.5687 31.1455 12.9165C30.7339 13.1907 30.0411 13.6602 29.4316 13.5284C29.089 13.4541 29.5052 13.1138 29.651 12.9902C30.1897 12.5346 30.7096 12.0493 31.2747 11.6237V11.6237Z" fill="url(#paint1_linear_189_1213)"/>
<path opacity="0.6" d="M35.0709 7.48385C34.9914 7.64099 34.9383 7.80826 34.9198 7.91797C34.8689 8.22467 35.236 8.13235 35.3928 8.03844C35.5844 7.92398 35.9993 7.27042 35.6728 7.10158C35.4226 6.97226 35.2074 7.21351 35.0706 7.48385H35.0709Z" fill="#FFD4D4"/>
<path opacity="0.6" d="M34.9208 8.36347C35.3505 8.52157 35.1126 8.90984 34.5831 9.53336C33.5089 10.7981 32.7599 11.0994 32.7108 11.0827C32.6617 11.0659 33.3247 10.64 33.9386 9.72307C34.3879 9.05181 34.6921 8.27937 34.9208 8.36347Z" fill="#FFD4D4"/>
<path d="M39.9347 8.0612C39.8923 8.17471 39.8328 8.25091 39.7754 8.26482C39.7545 8.26988 39.73 8.26102 39.7005 8.23763C39.6956 8.23383 39.6907 8.22972 39.6858 8.22498C39.5734 8.12443 39.3963 7.8367 39.1112 7.35357C38.9602 7.09778 38.776 6.78571 38.6999 6.70508C38.6904 6.69496 38.6824 6.68832 38.6766 6.68611C38.6655 6.68453 38.644 6.68832 38.6149 6.69591C38.524 6.71962 38.3601 6.7797 38.2109 6.8344C37.7972 6.98553 37.4967 7.08956 37.3966 7.04845C37.3926 7.04687 37.389 7.04498 37.3853 7.04276C37.3254 7.00703 37.2837 6.89068 37.2453 6.71361C37.2235 6.61433 37.203 6.49608 37.1805 6.36233C37.1514 6.18938 37.1192 5.99746 37.0842 5.91082C37.0762 5.8909 37.0682 5.87636 37.0599 5.86909C37.0467 5.85707 37.0071 5.84948 36.9513 5.84505C36.8475 5.83652 36.6882 5.83842 36.5415 5.84C36.0575 5.84537 35.6987 5.83905 35.59 5.71953C35.5869 5.71605 35.5839 5.71257 35.5811 5.70878C35.5747 5.69993 35.5694 5.69076 35.5654 5.68095C35.5449 5.63037 35.5529 5.56776 35.5891 5.49504C35.5915 5.48966 35.5943 5.48429 35.5974 5.47891C35.6106 5.45457 35.6274 5.42864 35.6474 5.40208C35.8656 5.10961 36.4645 4.70205 37.1038 4.5996C37.5286 4.53162 37.85 4.19678 38.0786 3.84329C38.2548 3.57137 38.4175 3.27099 38.4927 2.94627C38.5759 2.58835 38.5286 2.21999 38.4706 1.86176C38.3914 1.3723 37.9906 0.913834 37.6796 0.546111C37.6631 0.526508 37.6456 0.50564 37.6403 0.480029C37.6354 0.456315 37.6416 0.431969 37.6477 0.408571C37.671 0.320671 37.7162 0.179021 37.7901 0.0879593C37.8435 0.0212443 37.9126 -0.018595 37.9998 0.00828072C38.3242 0.108828 38.881 1.03114 38.9706 1.5187C39.0725 2.0736 39.0274 3.24728 38.9912 4.19014L38.9902 4.21354C38.9866 4.3065 38.9826 4.3925 38.9786 4.4725C38.9439 5.19561 38.9322 5.43907 39.5529 6.37182C40.0314 7.09082 40.0639 7.71592 39.9347 8.0612V8.0612Z" fill="#4F970F"/>
<path opacity="0.5" d="M39.9347 8.0612C39.8923 8.17471 39.8328 8.25091 39.7754 8.26482C39.7545 8.26988 39.73 8.26102 39.7005 8.23763C39.6956 8.23383 39.6907 8.22972 39.6858 8.22498C39.5734 8.12443 39.3963 7.8367 39.1112 7.35357C38.9602 7.09778 38.776 6.78571 38.6999 6.70508C38.6904 6.69496 38.6824 6.68832 38.6766 6.68611C38.6655 6.68453 38.644 6.68832 38.6149 6.69591C38.524 6.71962 38.3601 6.7797 38.2109 6.8344C37.7972 6.98553 37.4967 7.08956 37.3966 7.04845C37.3926 7.04687 37.389 7.04498 37.3853 7.04276C37.3254 7.00703 37.2837 6.89068 37.2453 6.71361C37.2235 6.61433 37.203 6.49608 37.1805 6.36233C37.1514 6.18938 37.1192 5.99746 37.0842 5.91082C37.0762 5.8909 37.0682 5.87636 37.0599 5.86909C37.0467 5.85707 37.0071 5.84948 36.9513 5.84505C36.8475 5.83652 36.6882 5.83842 36.5415 5.84C36.0575 5.84537 35.6987 5.83905 35.59 5.71953C35.5869 5.71605 35.5839 5.71257 35.5811 5.70878C35.5747 5.69993 35.5694 5.69076 35.5654 5.68095C35.5449 5.63037 35.5529 5.56776 35.5891 5.49504C35.5915 5.48966 35.5943 5.48429 35.5974 5.47891C35.6106 5.45457 35.6274 5.42864 35.6474 5.40208C35.6474 5.50041 35.6575 5.59147 35.6882 5.64428C35.8199 5.87067 36.2932 5.64396 36.4792 5.61835C36.7576 5.57978 37.0777 5.63574 37.2825 5.8479C37.4553 6.02655 37.4728 6.34336 37.6861 6.46731C37.8616 6.56912 38.0808 6.48659 38.2628 6.39806C38.4451 6.30921 38.6545 6.21373 38.8402 6.29467C38.9786 6.35474 39.0633 6.49766 39.1805 6.59473C39.2054 6.6156 39.2349 6.6352 39.2668 6.63299C39.3135 6.62983 39.3466 6.5805 39.3497 6.53276C39.3619 6.34241 39.1802 6.13025 39.0949 5.97279C39.0197 5.83399 38.9448 5.69392 38.8847 5.54721C38.8049 5.35244 38.7726 5.15957 38.7883 4.94867C38.819 4.53763 38.7883 4.03173 38.8804 2.70376C38.9724 1.37578 38.6962 1.34416 38.5734 0.901503C38.4614 0.497419 37.889 0.146137 37.7901 0.0879593C37.8435 0.0212443 37.9126 -0.018595 37.9998 0.00828072C38.3242 0.108828 38.881 1.03114 38.9706 1.5187C39.0725 2.0736 39.0274 3.24728 38.9912 4.19014L38.9902 4.21354C38.9866 4.3065 38.9826 4.3925 38.9786 4.4725C38.9439 5.19561 38.9322 5.43907 39.5529 6.37182C40.0314 7.09082 40.0639 7.71592 39.9347 8.0612V8.0612Z" fill="#3F720E"/>
<path d="M38.4199 3.87364C38.4865 3.89071 38.3585 4.34791 38.4199 4.60086C38.4813 4.85381 38.6348 5.32809 38.5734 5.39132C38.512 5.45456 38.2358 4.94867 38.0823 5.0119C37.9288 5.07514 38.4813 5.8656 38.1744 6.02369C37.8674 6.18179 37.3149 5.07514 36.5169 5.20161C36.3021 5.16999 37.1615 4.82219 37.6219 4.60086C38.0823 4.37953 38.2971 3.84202 38.4199 3.87364V3.87364Z" fill="url(#paint2_linear_189_1213)"/>
<path d="M37.117 4.92843C37.0544 4.94867 36.9912 4.97206 36.9408 5.01506C36.9292 5.02518 36.9175 5.03751 36.916 5.05301C36.9126 5.08779 36.9568 5.10328 36.9905 5.10865C37.0476 5.11782 37.1044 5.133 37.156 5.16019C37.2174 5.19276 37.2695 5.24145 37.3297 5.27592C37.3902 5.31038 37.4654 5.32998 37.5277 5.299C37.5654 5.28034 37.5931 5.24556 37.6185 5.21141C37.6713 5.13996 37.7198 5.06502 37.7634 4.98724C37.791 4.93791 37.8171 4.88606 37.8226 4.82946C37.8276 4.77919 37.8073 4.67864 37.7441 4.68181C37.7186 4.68307 37.6768 4.72354 37.6538 4.7365C37.6204 4.75516 37.586 4.7716 37.551 4.78646C37.4104 4.84654 37.2616 4.88163 37.1167 4.92843H37.117Z" fill="#84C93D"/>
<path style="mix-blend-mode:lighten" opacity="0.5" d="M38.3791 0.748146C38.2643 0.573928 38.0998 0.431961 37.9049 0.368408C37.8926 0.43955 37.881 0.517331 37.915 0.580252C37.9245 0.597959 37.9371 0.613452 37.95 0.628628C38.0246 0.716212 38.1225 0.766801 38.1744 0.870194C38.3137 1.14844 38.4641 1.52153 38.5427 1.5658C38.5427 1.18638 38.5427 0.996668 38.3791 0.748463V0.748146Z" fill="url(#paint3_linear_189_1213)"/>
<g clip-path="url(#clip0_189_1213)">
<path d="M58.4465 10.9315C57.6258 12.1361 54.8904 14.0696 51.3078 15.9768C49.9527 16.6984 48.5291 17.0414 47.0764 16.9962C45.8477 16.9576 44.8327 16.6592 44.0914 16.441C43.8492 16.3698 43.6399 16.3082 43.4637 16.2677C42.9419 16.1482 42.1552 15.8127 41.305 15.3479C40.7415 15.0397 40.1252 14.6564 40.018 14.5116C40.011 14.5021 40.0064 14.4936 40.0039 14.4863C39.9984 14.4705 39.9987 14.4544 40.0048 14.4408C40.0067 14.4364 40.0091 14.4319 40.0122 14.4282C40.0975 14.3181 40.3247 14.026 42.6506 14.1186C45.5352 14.2334 48.4217 12.6427 50.6577 10.8828C51.3118 10.368 51.9217 9.79035 52.456 9.14439C53.0082 8.47692 53.3477 7.74527 53.7823 7.00792C54.2753 6.17162 55.4257 5.58984 56.3188 5.33404C56.3281 5.33151 56.3379 5.33183 56.3471 5.33531C56.4496 5.37325 58.3551 6.08688 59.3339 6.70217C59.608 6.87418 59.8093 7.03859 59.8784 7.17835C60.2044 7.83823 59.2375 9.77012 58.4465 10.9311V10.9315Z" fill="#FF2311"/>
<path opacity="0.6" d="M58.4465 10.9315C57.6258 12.1361 54.8904 14.0696 51.3078 15.9768C49.9527 16.6984 48.5291 17.0414 47.0764 16.9962C45.8477 16.9576 44.8327 16.6591 44.0914 16.441C43.8492 16.3698 43.6399 16.3082 43.4637 16.2677C42.9419 16.1482 42.1552 15.8127 41.305 15.3479C40.7415 15.0396 40.1252 14.6564 40.018 14.5116C40.011 14.5021 40.0064 14.4936 40.0039 14.4863C39.9984 14.4705 39.9987 14.4544 40.0048 14.4408C41.3422 14.7728 43.3216 15.8548 44.5159 16.1419C48.8502 17.1831 51.8388 14.7788 53.4137 13.8027C54.0886 13.3844 54.7077 12.8785 55.3201 12.3685C56.2728 11.5752 57.2234 10.7585 57.9665 9.75557C58.3695 9.21173 58.7074 8.61098 58.933 7.96628C59.0665 7.58527 59.0963 7.05693 59.3339 6.70248C59.608 6.87449 59.8093 7.0389 59.8784 7.17866C60.2044 7.83854 59.2375 9.77043 58.4465 10.9315V10.9315Z" fill="#C91B16"/>
<path style="mix-blend-mode:lighten" d="M47.5788 15.482C48.7403 15.2834 49.8643 14.8768 50.8806 14.2524C51.9585 13.59 52.9441 12.7827 53.9631 12.028C54.7446 11.4491 55.5497 10.8983 56.2648 10.2346C56.98 9.57092 57.6098 8.78109 57.9484 7.85309C58.0515 7.57011 58.1273 7.25803 58.0454 6.96746C57.9469 6.61776 57.639 6.37113 57.3161 6.22347C56.7059 5.9446 55.9821 5.9427 55.3707 6.21905C54.9076 6.42836 54.5141 6.7945 54.2581 7.24317C53.9843 7.72314 53.9309 8.30745 53.6236 8.76876C53.3017 9.25221 52.8557 9.63637 52.4208 10.0069C51.0153 11.204 49.6507 12.611 47.9947 13.4189C47.5472 13.6371 46.8683 14.0225 46.3646 14.0225C45.6807 14.2015 44.9794 14.2979 44.2888 14.4516C43.2265 14.6877 42.2102 14.3289 41.4769 14.4032C41.4186 14.4092 41.3689 14.493 41.4155 14.5297C41.686 14.7431 42.5214 15.0719 42.7047 15.1304C44.2762 15.6325 45.9637 15.7587 47.5785 15.4823L47.5788 15.482Z" fill="url(#paint4_linear_189_1213)"/>
<path style="mix-blend-mode:lighten" d="M51.275 11.6239C52.8001 10.4752 53.6163 9.7091 54.0613 8.96448C54.4386 8.33338 54.5002 7.69943 55.0168 7.0522C55.1777 6.85047 55.3437 6.63957 55.573 6.52828C55.8023 6.41698 56.3087 6.47547 56.4557 6.68795C56.9923 7.4645 56.3977 8.6113 56.0874 9.15419C55.6801 9.86687 54.1332 11.229 53.325 11.5888C52.6924 11.8705 51.6675 12.569 51.1457 12.9168C50.7341 13.1909 50.0414 13.6605 49.4318 13.5286C49.0893 13.4543 49.5055 13.1141 49.6513 12.9905C50.1899 12.5348 50.7099 12.0495 51.275 11.6239V11.6239Z" fill="url(#paint5_linear_189_1213)"/>
<path opacity="0.6" d="M55.0711 7.48409C54.9916 7.64124 54.9385 7.8085 54.9201 7.91822C54.8691 8.22491 55.2362 8.13259 55.3931 8.03868C55.5846 7.92422 55.9996 7.27067 55.673 7.10183C55.4229 6.97251 55.2077 7.21376 55.0708 7.48409H55.0711Z" fill="#FFD4D4"/>
<path opacity="0.6" d="M55.2125 8.0063C55.6422 8.16439 55.4044 8.55266 54.8749 9.17618C53.8006 10.4409 53.0517 10.7422 53.0026 10.7255C52.9535 10.7087 53.6164 10.2828 54.2303 9.36589C54.6797 8.69463 54.9838 7.92219 55.2125 8.0063Z" fill="#FFD4D4"/>
<path d="M59.9349 8.06144C59.8926 8.17495 59.833 8.25115 59.7756 8.26506C59.7548 8.27012 59.7302 8.26127 59.7007 8.23787C59.6958 8.23408 59.6909 8.22997 59.686 8.22522C59.5737 8.12468 59.3966 7.83695 59.1114 7.35382C58.9604 7.09802 58.7763 6.78595 58.7001 6.70532C58.6906 6.6952 58.6826 6.68856 58.6768 6.68635C58.6658 6.68477 58.6443 6.68856 58.6151 6.69615C58.5243 6.71987 58.3604 6.77994 58.2112 6.83464C57.7974 6.98578 57.4969 7.0898 57.3969 7.0487C57.3929 7.04712 57.3892 7.04522 57.3855 7.04301C57.3257 7.00728 57.2839 6.89092 57.2456 6.71386C57.2238 6.61458 57.2032 6.49632 57.1808 6.36258C57.1516 6.18962 57.1194 5.9977 57.0844 5.91107C57.0764 5.89115 57.0685 5.8766 57.0602 5.86933C57.047 5.85731 57.0074 5.84973 56.9515 5.8453C56.8478 5.83676 56.6885 5.83866 56.5418 5.84024C56.0577 5.84562 55.6989 5.83929 55.5902 5.71977C55.5872 5.7163 55.5841 5.71282 55.5813 5.70902C55.5749 5.70017 55.5697 5.691 55.5657 5.6812C55.5451 5.63061 55.5531 5.568 55.5893 5.49528C55.5918 5.48991 55.5945 5.48453 55.5976 5.47916C55.6108 5.45481 55.6277 5.42888 55.6476 5.40232C55.8659 5.10985 56.4647 4.70229 57.1041 4.59985C57.5289 4.53187 57.8502 4.19703 58.0789 3.84353C58.2551 3.57161 58.4177 3.27124 58.4929 2.94652C58.5761 2.58859 58.5289 2.22024 58.4708 1.862C58.3917 1.37255 57.9908 0.914079 57.6799 0.546355C57.6633 0.526752 57.6458 0.505884 57.6406 0.480273C57.6357 0.456559 57.6418 0.432213 57.6479 0.408815C57.6713 0.320916 57.7164 0.179265 57.7904 0.0882035C57.8438 0.0214884 57.9128 -0.0183509 58 0.00852486C58.3244 0.109072 58.8812 1.03138 58.9708 1.51894C59.0728 2.07384 59.0276 3.24752 58.9914 4.19039L58.9905 4.21378C58.9868 4.30674 58.9828 4.39275 58.9788 4.47274C58.9441 5.19586 58.9325 5.43932 59.5531 6.37206C60.0316 7.09107 60.0642 7.71617 59.9349 8.06144V8.06144Z" fill="#4F970F"/>
<path opacity="0.5" d="M59.9349 8.06144C59.8926 8.17495 59.833 8.25115 59.7756 8.26506C59.7548 8.27012 59.7302 8.26127 59.7007 8.23787C59.6958 8.23408 59.6909 8.22997 59.686 8.22522C59.5737 8.12468 59.3966 7.83695 59.1114 7.35382C58.9604 7.09802 58.7763 6.78595 58.7001 6.70532C58.6906 6.6952 58.6826 6.68856 58.6768 6.68635C58.6658 6.68477 58.6443 6.68856 58.6151 6.69615C58.5243 6.71987 58.3604 6.77994 58.2112 6.83464C57.7974 6.98578 57.4969 7.0898 57.3969 7.0487C57.3929 7.04712 57.3892 7.04522 57.3855 7.04301C57.3257 7.00728 57.2839 6.89092 57.2456 6.71386C57.2238 6.61458 57.2032 6.49632 57.1808 6.36258C57.1516 6.18962 57.1194 5.9977 57.0844 5.91107C57.0764 5.89115 57.0685 5.8766 57.0602 5.86933C57.047 5.85731 57.0074 5.84973 56.9515 5.8453C56.8478 5.83676 56.6885 5.83866 56.5418 5.84024C56.0577 5.84562 55.6989 5.83929 55.5902 5.71977C55.5872 5.7163 55.5841 5.71282 55.5813 5.70902C55.5749 5.70017 55.5697 5.691 55.5657 5.6812C55.5451 5.63061 55.5531 5.568 55.5893 5.49528C55.5918 5.48991 55.5945 5.48453 55.5976 5.47916C55.6108 5.45481 55.6277 5.42888 55.6476 5.40232C55.6476 5.50066 55.6578 5.59172 55.6885 5.64452C55.8201 5.87091 56.2934 5.64421 56.4794 5.61859C56.7578 5.58002 57.078 5.63598 57.2827 5.84814C57.4555 6.02679 57.473 6.34361 57.6863 6.46755C57.8619 6.56936 58.081 6.48684 58.2631 6.39831C58.4454 6.30946 58.6547 6.21397 58.8404 6.29491C58.9788 6.35499 59.0635 6.4979 59.1808 6.59497C59.2057 6.61584 59.2351 6.63544 59.267 6.63323C59.3137 6.63007 59.3468 6.58074 59.3499 6.533C59.3622 6.34266 59.1805 6.1305 59.0952 5.97304C59.02 5.83423 58.9451 5.69416 58.8849 5.54745C58.8051 5.35268 58.7729 5.15981 58.7885 4.94891C58.8192 4.53787 58.7885 4.03198 58.8806 2.704C58.9727 1.37602 58.6964 1.34441 58.5737 0.901747C58.4616 0.497663 57.8892 0.146381 57.7904 0.0882035C57.8438 0.0214884 57.9128 -0.0183509 58 0.00852486C58.3244 0.109072 58.8812 1.03138 58.9708 1.51894C59.0728 2.07384 59.0276 3.24752 58.9914 4.19039L58.9905 4.21378C58.9868 4.30674 58.9828 4.39275 58.9788 4.47274C58.9441 5.19586 58.9325 5.43932 59.5531 6.37206C60.0316 7.09107 60.0642 7.71617 59.9349 8.06144V8.06144Z" fill="#3F720E"/>
<path d="M58.4202 3.87388C58.4868 3.89095 58.3588 4.34816 58.4202 4.60111C58.4815 4.85405 58.635 5.32833 58.5736 5.39157C58.5122 5.45481 58.236 4.94891 58.0825 5.01215C57.9291 5.07538 58.4815 5.86585 58.1746 6.02394C57.8677 6.18203 57.3152 5.07538 56.5172 5.20186C56.3023 5.17024 57.1617 4.82244 57.6221 4.60111C58.0825 4.37978 58.2974 3.84226 58.4202 3.87388V3.87388Z" fill="url(#paint6_linear_189_1213)"/>
<path d="M57.1172 4.92867C57.0546 4.94891 56.9914 4.97231 56.9411 5.01531C56.9294 5.02543 56.9177 5.03776 56.9162 5.05325C56.9128 5.08803 56.957 5.10352 56.9908 5.1089C57.0479 5.11807 57.1047 5.13325 57.1562 5.16044C57.2176 5.193 57.2698 5.2417 57.3299 5.27616C57.3904 5.31062 57.4656 5.33023 57.5279 5.29924C57.5657 5.28059 57.5933 5.24581 57.6188 5.21166C57.6716 5.1402 57.7201 5.06527 57.7637 4.98748C57.7913 4.93816 57.8174 4.8863 57.8229 4.82971C57.8278 4.77943 57.8075 4.67889 57.7443 4.68205C57.7188 4.68331 57.6771 4.72379 57.6541 4.73675C57.6206 4.7554 57.5862 4.77185 57.5513 4.78671C57.4107 4.84678 57.2618 4.88188 57.1169 4.92867H57.1172Z" fill="#84C93D"/>
<path style="mix-blend-mode:lighten" opacity="0.5" d="M58.3794 0.748391C58.2646 0.574173 58.1 0.432206 57.9051 0.368652C57.8929 0.439794 57.8812 0.517575 57.9153 0.580496C57.9248 0.598203 57.9374 0.613696 57.9503 0.628873C58.0248 0.716456 58.1228 0.767045 58.1746 0.870438C58.314 1.14868 58.4644 1.52178 58.543 1.56604C58.543 1.18662 58.543 0.996912 58.3794 0.748707V0.748391Z" fill="url(#paint7_linear_189_1213)"/>
</g>
<g clip-path="url(#clip1_189_1213)">
<path d="M18.4465 10.9315C17.6258 12.1361 14.8904 14.0696 11.3078 15.9768C9.95267 16.6984 8.52909 17.0414 7.07636 16.9962C5.84769 16.9576 4.83265 16.6592 4.0914 16.441C3.84923 16.3698 3.6399 16.3082 3.46372 16.2677C2.94192 16.1482 2.15525 15.8127 1.30503 15.3479C0.741495 15.0397 0.125166 14.6564 0.0180447 14.5116C0.0109851 14.5021 0.00638105 14.4936 0.00392556 14.4863C-0.0015993 14.4705 -0.00129237 14.4544 0.00484637 14.4408C0.00668799 14.4364 0.00914348 14.4319 0.0122129 14.4282C0.0975413 14.3181 0.324675 14.026 2.65064 14.1186C5.53523 14.2334 8.42167 12.6427 10.6577 10.8828C11.3118 10.368 11.9217 9.79035 12.456 9.14439C13.0082 8.47692 13.3477 7.74527 13.7823 7.00792C14.2753 6.17162 15.4257 5.58984 16.3188 5.33404C16.3281 5.33151 16.3379 5.33183 16.3471 5.33531C16.4496 5.37325 18.3551 6.08688 19.3339 6.70217C19.608 6.87418 19.8093 7.03859 19.8784 7.17835C20.2044 7.83823 19.2375 9.77012 18.4465 10.9311V10.9315Z" fill="#FF2311"/>
<path opacity="0.6" d="M18.4465 10.9315C17.6258 12.1361 14.8904 14.0696 11.3078 15.9768C9.95267 16.6984 8.52909 17.0414 7.07636 16.9962C5.84769 16.9576 4.83265 16.6591 4.0914 16.441C3.84923 16.3698 3.6399 16.3082 3.46372 16.2677C2.94192 16.1482 2.15525 15.8127 1.30503 15.3479C0.741495 15.0396 0.125166 14.6564 0.0180447 14.5116C0.0109851 14.5021 0.00638105 14.4936 0.00392556 14.4863C-0.0015993 14.4705 -0.00129237 14.4544 0.00484637 14.4408C1.34217 14.7728 3.32161 15.8548 4.5159 16.1419C8.85015 17.1831 11.8388 14.7788 13.4137 13.8027C14.0886 13.3844 14.7077 12.8785 15.3201 12.3685C16.2728 11.5752 17.2234 10.7585 17.9665 9.75557C18.3695 9.21173 18.7074 8.61098 18.933 7.96628C19.0665 7.58527 19.0963 7.05693 19.3339 6.70248C19.608 6.87449 19.8093 7.0389 19.8784 7.17866C20.2044 7.83854 19.2375 9.77043 18.4465 10.9315V10.9315Z" fill="#C91B16"/>
<path style="mix-blend-mode:lighten" d="M7.57884 15.482C8.74028 15.2834 9.86429 14.8768 10.8806 14.2524C11.9585 13.59 12.9441 12.7827 13.9631 12.028C14.7446 11.4491 15.5497 10.8983 16.2648 10.2346C16.98 9.57092 17.6098 8.78109 17.9484 7.85309C18.0515 7.57011 18.1273 7.25803 18.0454 6.96746C17.9469 6.61776 17.639 6.37113 17.3161 6.22347C16.7059 5.9446 15.9821 5.9427 15.3707 6.21905C14.9076 6.42836 14.5141 6.7945 14.2581 7.24317C13.9843 7.72314 13.9309 8.30745 13.6236 8.76876C13.3017 9.25221 12.8557 9.63637 12.4208 10.0069C11.0153 11.204 9.65066 12.611 7.99474 13.4189C7.54722 13.6371 6.86828 14.0225 6.36459 14.0225C5.68074 14.2015 4.97939 14.2979 4.28878 14.4516C3.22647 14.6877 2.2102 14.3289 1.47693 14.4032C1.41861 14.4092 1.36889 14.493 1.41555 14.5297C1.68596 14.7431 2.52144 15.0719 2.70468 15.1304C4.2762 15.6325 5.96373 15.7587 7.57853 15.4823L7.57884 15.482Z" fill="url(#paint8_linear_189_1213)"/>
<path style="mix-blend-mode:lighten" d="M11.275 11.6239C12.8001 10.4752 13.6163 9.7091 14.0613 8.96448C14.4386 8.33338 14.5002 7.69943 15.0168 7.0522C15.1777 6.85047 15.3437 6.63957 15.573 6.52828C15.8023 6.41698 16.3087 6.47547 16.4557 6.68795C16.9923 7.4645 16.3977 8.6113 16.0874 9.15419C15.6801 9.86687 14.1332 11.229 13.325 11.5888C12.6924 11.8705 11.6675 12.569 11.1457 12.9168C10.7341 13.1909 10.0414 13.6605 9.4318 13.5286C9.08926 13.4543 9.50547 13.1141 9.65126 12.9905C10.1899 12.5348 10.7099 12.0495 11.275 11.6239V11.6239Z" fill="url(#paint9_linear_189_1213)"/>
<path opacity="0.6" d="M15.0711 7.48409C14.9916 7.64124 14.9385 7.8085 14.9201 7.91822C14.8691 8.22491 15.2362 8.13259 15.3931 8.03868C15.5846 7.92422 15.9996 7.27067 15.673 7.10183C15.4229 6.97251 15.2077 7.21376 15.0708 7.48409H15.0711Z" fill="#FFD4D4"/>
<path opacity="0.6" d="M15.2125 8.0063C15.6422 8.16439 15.4044 8.55266 14.8749 9.17618C13.8006 10.4409 13.0517 10.7422 13.0026 10.7255C12.9535 10.7087 13.6164 10.2828 14.2303 9.36589C14.6797 8.69463 14.9838 7.92219 15.2125 8.0063Z" fill="#FFD4D4"/>
<path d="M19.9349 8.06144C19.8926 8.17495 19.833 8.25115 19.7756 8.26506C19.7548 8.27012 19.7302 8.26127 19.7007 8.23787C19.6958 8.23408 19.6909 8.22997 19.686 8.22522C19.5737 8.12468 19.3966 7.83695 19.1114 7.35382C18.9604 7.09802 18.7763 6.78595 18.7001 6.70532C18.6906 6.6952 18.6826 6.68856 18.6768 6.68635C18.6658 6.68477 18.6443 6.68856 18.6151 6.69615C18.5243 6.71987 18.3604 6.77994 18.2112 6.83464C17.7974 6.98578 17.4969 7.0898 17.3969 7.0487C17.3929 7.04712 17.3892 7.04522 17.3855 7.04301C17.3257 7.00728 17.2839 6.89092 17.2456 6.71386C17.2238 6.61458 17.2032 6.49632 17.1808 6.36258C17.1516 6.18962 17.1194 5.9977 17.0844 5.91107C17.0764 5.89115 17.0685 5.8766 17.0602 5.86933C17.047 5.85731 17.0074 5.84973 16.9515 5.8453C16.8478 5.83676 16.6885 5.83866 16.5418 5.84024C16.0577 5.84562 15.6989 5.83929 15.5902 5.71977C15.5872 5.7163 15.5841 5.71282 15.5813 5.70902C15.5749 5.70017 15.5697 5.691 15.5657 5.6812C15.5451 5.63061 15.5531 5.568 15.5893 5.49528C15.5918 5.48991 15.5945 5.48453 15.5976 5.47916C15.6108 5.45481 15.6277 5.42888 15.6476 5.40232C15.8659 5.10985 16.4647 4.70229 17.1041 4.59985C17.5289 4.53187 17.8502 4.19703 18.0789 3.84353C18.2551 3.57161 18.4177 3.27124 18.4929 2.94652C18.5761 2.58859 18.5289 2.22024 18.4708 1.862C18.3917 1.37255 17.9908 0.914079 17.6799 0.546355C17.6633 0.526752 17.6458 0.505884 17.6406 0.480273C17.6357 0.456559 17.6418 0.432213 17.6479 0.408815C17.6713 0.320916 17.7164 0.179265 17.7904 0.0882035C17.8438 0.0214884 17.9128 -0.0183509 18 0.00852486C18.3244 0.109072 18.8812 1.03138 18.9708 1.51894C19.0728 2.07384 19.0276 3.24752 18.9914 4.19039L18.9905 4.21378C18.9868 4.30674 18.9828 4.39275 18.9788 4.47274C18.9441 5.19586 18.9325 5.43932 19.5531 6.37206C20.0316 7.09107 20.0642 7.71617 19.9349 8.06144V8.06144Z" fill="#4F970F"/>
<path opacity="0.5" d="M19.9349 8.06144C19.8926 8.17495 19.833 8.25115 19.7756 8.26506C19.7548 8.27012 19.7302 8.26127 19.7007 8.23787C19.6958 8.23408 19.6909 8.22997 19.686 8.22522C19.5737 8.12468 19.3966 7.83695 19.1114 7.35382C18.9604 7.09802 18.7763 6.78595 18.7001 6.70532C18.6906 6.6952 18.6826 6.68856 18.6768 6.68635C18.6658 6.68477 18.6443 6.68856 18.6151 6.69615C18.5243 6.71987 18.3604 6.77994 18.2112 6.83464C17.7974 6.98578 17.4969 7.0898 17.3969 7.0487C17.3929 7.04712 17.3892 7.04522 17.3855 7.04301C17.3257 7.00728 17.2839 6.89092 17.2456 6.71386C17.2238 6.61458 17.2032 6.49632 17.1808 6.36258C17.1516 6.18962 17.1194 5.9977 17.0844 5.91107C17.0764 5.89115 17.0685 5.8766 17.0602 5.86933C17.047 5.85731 17.0074 5.84973 16.9515 5.8453C16.8478 5.83676 16.6885 5.83866 16.5418 5.84024C16.0577 5.84562 15.6989 5.83929 15.5902 5.71977C15.5872 5.7163 15.5841 5.71282 15.5813 5.70902C15.5749 5.70017 15.5697 5.691 15.5657 5.6812C15.5451 5.63061 15.5531 5.568 15.5893 5.49528C15.5918 5.48991 15.5945 5.48453 15.5976 5.47916C15.6108 5.45481 15.6277 5.42888 15.6476 5.40232C15.6476 5.50066 15.6578 5.59172 15.6885 5.64452C15.8201 5.87091 16.2934 5.64421 16.4794 5.61859C16.7578 5.58002 17.078 5.63598 17.2827 5.84814C17.4555 6.02679 17.473 6.34361 17.6863 6.46755C17.8619 6.56936 18.081 6.48684 18.2631 6.39831C18.4454 6.30946 18.6547 6.21397 18.8404 6.29491C18.9788 6.35499 19.0635 6.4979 19.1808 6.59497C19.2057 6.61584 19.2351 6.63544 19.267 6.63323C19.3137 6.63007 19.3468 6.58074 19.3499 6.533C19.3622 6.34266 19.1805 6.1305 19.0952 5.97304C19.02 5.83423 18.9451 5.69416 18.8849 5.54745C18.8051 5.35268 18.7729 5.15981 18.7885 4.94891C18.8192 4.53787 18.7885 4.03198 18.8806 2.704C18.9727 1.37602 18.6964 1.34441 18.5737 0.901747C18.4616 0.497663 17.8892 0.146381 17.7904 0.0882035C17.8438 0.0214884 17.9128 -0.0183509 18 0.00852486C18.3244 0.109072 18.8812 1.03138 18.9708 1.51894C19.0728 2.07384 19.0276 3.24752 18.9914 4.19039L18.9905 4.21378C18.9868 4.30674 18.9828 4.39275 18.9788 4.47274C18.9441 5.19586 18.9325 5.43932 19.5531 6.37206C20.0316 7.09107 20.0642 7.71617 19.9349 8.06144V8.06144Z" fill="#3F720E"/>
<path d="M18.4202 3.87388C18.4868 3.89095 18.3588 4.34816 18.4202 4.60111C18.4815 4.85405 18.635 5.32833 18.5736 5.39157C18.5122 5.45481 18.236 4.94891 18.0825 5.01215C17.9291 5.07538 18.4815 5.86585 18.1746 6.02394C17.8677 6.18203 17.3152 5.07538 16.5172 5.20186C16.3023 5.17024 17.1617 4.82244 17.6221 4.60111C18.0825 4.37978 18.2974 3.84226 18.4202 3.87388V3.87388Z" fill="url(#paint10_linear_189_1213)"/>
<path d="M17.1172 4.92867C17.0546 4.94891 16.9914 4.97231 16.9411 5.01531C16.9294 5.02543 16.9177 5.03776 16.9162 5.05325C16.9128 5.08803 16.957 5.10352 16.9908 5.1089C17.0479 5.11807 17.1047 5.13325 17.1562 5.16044C17.2176 5.193 17.2698 5.2417 17.3299 5.27616C17.3904 5.31062 17.4656 5.33023 17.5279 5.29924C17.5657 5.28059 17.5933 5.24581 17.6188 5.21166C17.6716 5.1402 17.7201 5.06527 17.7637 4.98748C17.7913 4.93816 17.8174 4.8863 17.8229 4.82971C17.8278 4.77943 17.8075 4.67889 17.7443 4.68205C17.7188 4.68331 17.6771 4.72379 17.6541 4.73675C17.6206 4.7554 17.5862 4.77185 17.5513 4.78671C17.4107 4.84678 17.2618 4.88188 17.1169 4.92867H17.1172Z" fill="#84C93D"/>
<path style="mix-blend-mode:lighten" opacity="0.5" d="M18.3794 0.748391C18.2646 0.574173 18.1 0.432206 17.9051 0.368652C17.8929 0.439794 17.8812 0.517575 17.9153 0.580496C17.9248 0.598203 17.9374 0.613696 17.9503 0.628873C18.0248 0.716456 18.1228 0.767045 18.1746 0.870438C18.314 1.14868 18.4644 1.52178 18.543 1.56604C18.543 1.18662 18.543 0.996912 18.3794 0.748707V0.748391Z" fill="url(#paint11_linear_189_1213)"/>
</g>
<defs>
<linearGradient id="paint0_linear_189_1213" x1="36.5642" y1="8.5649" x2="22.7601" y2="14.9647" gradientUnits="userSpaceOnUse">
<stop stop-color="#FE492E"/>
<stop offset="0.44" stop-color="#FC482D"/>
<stop offset="0.6" stop-color="#F5462C"/>
<stop offset="0.71" stop-color="#E9432B"/>
<stop offset="0.81" stop-color="#D83F28"/>
<stop offset="0.89" stop-color="#C23925"/>
<stop offset="0.95" stop-color="#A83222"/>
<stop offset="1" stop-color="#912C1F"/>
</linearGradient>
<linearGradient id="paint1_linear_189_1213" x1="36.2707" y1="7.19076" x2="30.1879" y2="13.749" gradientUnits="userSpaceOnUse">
<stop stop-color="#FE7147"/>
<stop offset="0.31" stop-color="#FB7046"/>
<stop offset="0.48" stop-color="#F36C44"/>
<stop offset="0.6" stop-color="#E66742"/>
<stop offset="0.72" stop-color="#D3603E"/>
<stop offset="0.81" stop-color="#BA5639"/>
<stop offset="0.91" stop-color="#9C4A33"/>
<stop offset="0.99" stop-color="#783C2C"/>
<stop offset="1" stop-color="#733A2B"/>
</linearGradient>
<linearGradient id="paint2_linear_189_1213" x1="37.5534" y1="4.3261" x2="37.5209" y2="5.90698" gradientUnits="userSpaceOnUse">
<stop stop-color="#6DB528"/>
<stop offset="0.87" stop-color="#539B12"/>
<stop offset="1" stop-color="#4F970F"/>
</linearGradient>
<linearGradient id="paint3_linear_189_1213" x1="38.0544" y1="0.537567" x2="38.4969" y2="1.18439" gradientUnits="userSpaceOnUse">
<stop stop-color="#76BC33"/>
<stop offset="0.43" stop-color="#74BA32"/>
<stop offset="0.59" stop-color="#70B330"/>
<stop offset="0.7" stop-color="#69A72D"/>
<stop offset="0.79" stop-color="#5E9628"/>
<stop offset="0.87" stop-color="#508022"/>
<stop offset="0.93" stop-color="#3F661B"/>
<stop offset="0.99" stop-color="#2C4612"/>
<stop offset="1" stop-color="#2A4312"/>
</linearGradient>
<linearGradient id="paint4_linear_189_1213" x1="56.5644" y1="8.56514" x2="42.7604" y2="14.965" gradientUnits="userSpaceOnUse">
<stop stop-color="#FE492E"/>
<stop offset="0.44" stop-color="#FC482D"/>
<stop offset="0.6" stop-color="#F5462C"/>
<stop offset="0.71" stop-color="#E9432B"/>
<stop offset="0.81" stop-color="#D83F28"/>
<stop offset="0.89" stop-color="#C23925"/>
<stop offset="0.95" stop-color="#A83222"/>
<stop offset="1" stop-color="#912C1F"/>
</linearGradient>
<linearGradient id="paint5_linear_189_1213" x1="56.271" y1="7.191" x2="50.1881" y2="13.7493" gradientUnits="userSpaceOnUse">
<stop stop-color="#FE7147"/>
<stop offset="0.31" stop-color="#FB7046"/>
<stop offset="0.48" stop-color="#F36C44"/>
<stop offset="0.6" stop-color="#E66742"/>
<stop offset="0.72" stop-color="#D3603E"/>
<stop offset="0.81" stop-color="#BA5639"/>
<stop offset="0.91" stop-color="#9C4A33"/>
<stop offset="0.99" stop-color="#783C2C"/>
<stop offset="1" stop-color="#733A2B"/>
</linearGradient>
<linearGradient id="paint6_linear_189_1213" x1="57.5537" y1="4.32634" x2="57.5211" y2="5.90723" gradientUnits="userSpaceOnUse">
<stop stop-color="#6DB528"/>
<stop offset="0.87" stop-color="#539B12"/>
<stop offset="1" stop-color="#4F970F"/>
</linearGradient>
<linearGradient id="paint7_linear_189_1213" x1="58.0546" y1="0.537811" x2="58.4971" y2="1.18463" gradientUnits="userSpaceOnUse">
<stop stop-color="#76BC33"/>
<stop offset="0.43" stop-color="#74BA32"/>
<stop offset="0.59" stop-color="#70B330"/>
<stop offset="0.7" stop-color="#69A72D"/>
<stop offset="0.79" stop-color="#5E9628"/>
<stop offset="0.87" stop-color="#508022"/>
<stop offset="0.93" stop-color="#3F661B"/>
<stop offset="0.99" stop-color="#2C4612"/>
<stop offset="1" stop-color="#2A4312"/>
</linearGradient>
<linearGradient id="paint8_linear_189_1213" x1="16.5644" y1="8.56514" x2="2.76039" y2="14.965" gradientUnits="userSpaceOnUse">
<stop stop-color="#FE492E"/>
<stop offset="0.44" stop-color="#FC482D"/>
<stop offset="0.6" stop-color="#F5462C"/>
<stop offset="0.71" stop-color="#E9432B"/>
<stop offset="0.81" stop-color="#D83F28"/>
<stop offset="0.89" stop-color="#C23925"/>
<stop offset="0.95" stop-color="#A83222"/>
<stop offset="1" stop-color="#912C1F"/>
</linearGradient>
<linearGradient id="paint9_linear_189_1213" x1="16.271" y1="7.191" x2="10.1881" y2="13.7493" gradientUnits="userSpaceOnUse">
<stop stop-color="#FE7147"/>
<stop offset="0.31" stop-color="#FB7046"/>
<stop offset="0.48" stop-color="#F36C44"/>
<stop offset="0.6" stop-color="#E66742"/>
<stop offset="0.72" stop-color="#D3603E"/>
<stop offset="0.81" stop-color="#BA5639"/>
<stop offset="0.91" stop-color="#9C4A33"/>
<stop offset="0.99" stop-color="#783C2C"/>
<stop offset="1" stop-color="#733A2B"/>
</linearGradient>
<linearGradient id="paint10_linear_189_1213" x1="17.5537" y1="4.32634" x2="17.5211" y2="5.90723" gradientUnits="userSpaceOnUse">
<stop stop-color="#6DB528"/>
<stop offset="0.87" stop-color="#539B12"/>
<stop offset="1" stop-color="#4F970F"/>
</linearGradient>
<linearGradient id="paint11_linear_189_1213" x1="18.0546" y1="0.537811" x2="18.4971" y2="1.18463" gradientUnits="userSpaceOnUse">
<stop stop-color="#76BC33"/>
<stop offset="0.43" stop-color="#74BA32"/>
<stop offset="0.59" stop-color="#70B330"/>
<stop offset="0.7" stop-color="#69A72D"/>
<stop offset="0.79" stop-color="#5E9628"/>
<stop offset="0.87" stop-color="#508022"/>
<stop offset="0.93" stop-color="#3F661B"/>
<stop offset="0.99" stop-color="#2C4612"/>
<stop offset="1" stop-color="#2A4312"/>
</linearGradient>
<clipPath id="clip0_189_1213">
<rect width="20" height="17" fill="white" transform="translate(40)"/>
</clipPath>
<clipPath id="clip1_189_1213">
<rect width="20" height="17" fill="white"/>
</clipPath>
</defs>
</svg>
