<svg width="23" height="23" viewBox="0 0 23 23" fill="none" xmlns="http://www.w3.org/2000/svg">
<circle cx="11.5" cy="11.5" r="11.5" fill="#EAF0F0"/>
<path d="M9.31343 15.13C8.58543 15.13 7.97009 14.9307 7.46743 14.532C6.96476 14.1247 6.58343 13.57 6.32343 12.868C6.07209 12.1573 5.94643 11.3513 5.94643 10.45C5.94643 9.54 6.07209 8.734 6.32343 8.032C6.58343 7.32133 6.96476 6.76667 7.46743 6.368C7.97009 5.96933 8.58543 5.77 9.31343 5.77C10.0414 5.77 10.6524 5.96933 11.1464 6.368C11.6491 6.76667 12.0304 7.32133 12.2904 8.032C12.5504 8.734 12.6804 9.54 12.6804 10.45C12.6804 11.3513 12.5504 12.1573 12.2904 12.868C12.0304 13.57 11.6491 14.1247 11.1464 14.532C10.6524 14.9307 10.0414 15.13 9.31343 15.13ZM9.31343 13.817C9.72076 13.817 10.0674 13.687 10.3534 13.427C10.6481 13.167 10.8734 12.7857 11.0294 12.283C11.1941 11.7803 11.2764 11.1693 11.2764 10.45C11.2764 9.722 11.1941 9.10667 11.0294 8.604C10.8734 8.10133 10.6481 7.72 10.3534 7.46C10.0674 7.2 9.72076 7.07 9.31343 7.07C8.90609 7.07 8.55509 7.2 8.26043 7.46C7.96576 7.72 7.74043 8.10133 7.58443 8.604C7.42843 9.10667 7.35043 9.722 7.35043 10.45C7.35043 11.1693 7.42843 11.7803 7.58443 12.283C7.74043 12.7857 7.96576 13.167 8.26043 13.427C8.55509 13.687 8.90609 13.817 9.31343 13.817ZM14.7838 14.504C14.5342 14.504 14.3132 14.4364 14.1208 14.3012C13.9284 14.166 13.7776 13.984 13.6684 13.7552C13.5592 13.5264 13.5046 13.2716 13.5046 12.9908C13.5046 12.7048 13.5592 12.4474 13.6684 12.2186C13.7776 11.9898 13.9284 11.8078 14.1208 11.6726C14.3132 11.5374 14.5342 11.4698 14.7838 11.4698C15.0386 11.4698 15.2596 11.5374 15.4468 11.6726C15.6392 11.8078 15.7874 11.9898 15.8914 12.2186C16.0006 12.4474 16.0552 12.7048 16.0552 12.9908C16.0552 13.2716 15.998 13.5264 15.8836 13.7552C15.7692 13.984 15.6158 14.166 15.4234 14.3012C15.2362 14.4364 15.023 14.504 14.7838 14.504ZM14.7838 13.8098C14.9398 13.8098 15.0594 13.7318 15.1426 13.5758C15.231 13.4198 15.2752 13.2248 15.2752 12.9908C15.2752 12.7568 15.2336 12.5618 15.1504 12.4058C15.0672 12.2498 14.945 12.1718 14.7838 12.1718C14.6278 12.1718 14.5056 12.2498 14.4172 12.4058C14.3288 12.5618 14.2846 12.7568 14.2846 12.9908C14.2846 13.2248 14.3262 13.4198 14.4094 13.5758C14.4978 13.7318 14.6226 13.8098 14.7838 13.8098ZM18.13 17.078C17.8908 17.078 17.675 17.0104 17.4826 16.8752C17.2902 16.74 17.1368 16.558 17.0224 16.3292C16.908 16.1004 16.8508 15.8456 16.8508 15.5648C16.8508 15.2788 16.9054 15.0214 17.0146 14.7926C17.1238 14.5638 17.2746 14.3818 17.467 14.2466C17.6594 14.1114 17.8804 14.0438 18.13 14.0438C18.3848 14.0438 18.6058 14.1114 18.793 14.2466C18.9854 14.3818 19.1336 14.5638 19.2376 14.7926C19.3468 15.0214 19.4014 15.2788 19.4014 15.5648C19.4014 15.8456 19.3442 16.1004 19.2298 16.3292C19.1154 16.558 18.962 16.74 18.7696 16.8752C18.5824 17.0104 18.3692 17.078 18.13 17.078ZM18.13 16.3838C18.286 16.3838 18.4056 16.3058 18.4888 16.1498C18.5772 15.9938 18.6214 15.7988 18.6214 15.5648C18.6214 15.3308 18.5798 15.1358 18.4966 14.9798C18.4134 14.8238 18.2912 14.7458 18.13 14.7458C17.974 14.7458 17.8518 14.8238 17.7634 14.9798C17.675 15.1358 17.6308 15.3308 17.6308 15.5648C17.6308 15.7988 17.6724 15.9938 17.7556 16.1498C17.844 16.3058 17.9688 16.3838 18.13 16.3838ZM14.8774 17.0156C14.7942 17.0156 14.7058 16.9818 14.6122 16.9142C14.5186 16.8414 14.4718 16.7478 14.4718 16.6334C14.4718 16.5658 14.4978 16.4878 14.5498 16.3994L17.6542 11.7116C17.7478 11.5868 17.8544 11.5244 17.974 11.5244C18.0624 11.5244 18.1508 11.5582 18.2392 11.6258C18.3328 11.6934 18.3796 11.787 18.3796 11.9066C18.3796 11.9742 18.3536 12.0522 18.3016 12.1406L15.1972 16.8284C15.1036 16.9532 14.997 17.0156 14.8774 17.0156Z" fill="#060D0F"/>
</svg>
