<svg width="23" height="23" viewBox="0 0 23 23" fill="none" xmlns="http://www.w3.org/2000/svg">
<circle cx="11.5" cy="11.5" r="11.5" fill="#D89F65"/>
<path d="M12.684 16.14C11.9747 16.14 11.312 16.014 10.696 15.762C10.08 15.5007 9.53867 15.1413 9.072 14.684C8.61467 14.2173 8.25533 13.6807 7.994 13.074C7.73267 12.4673 7.602 11.8093 7.602 11.1C7.602 10.3907 7.73267 9.73267 7.994 9.126C8.25533 8.51933 8.61467 7.98733 9.072 7.53C9.53867 7.06333 10.08 6.704 10.696 6.452C11.312 6.19067 11.9747 6.06 12.684 6.06C13.1413 6.06 13.5847 6.11133 14.014 6.214C14.4433 6.31667 14.8307 6.466 15.176 6.662C15.2973 6.72733 15.386 6.816 15.442 6.928C15.498 7.03067 15.526 7.13333 15.526 7.236C15.526 7.432 15.4607 7.60467 15.33 7.754C15.2087 7.894 15.0547 7.964 14.868 7.964C14.8027 7.964 14.7327 7.95467 14.658 7.936C14.5927 7.91733 14.532 7.894 14.476 7.866C14.2147 7.73533 13.9347 7.63733 13.636 7.572C13.3373 7.49733 13.02 7.46 12.684 7.46C12.012 7.46 11.4053 7.62333 10.864 7.95C10.3227 8.26733 9.89333 8.70133 9.576 9.252C9.268 9.80267 9.114 10.4187 9.114 11.1C9.114 11.772 9.268 12.388 9.576 12.948C9.89333 13.4987 10.3227 13.9373 10.864 14.264C11.4053 14.5813 12.012 14.74 12.684 14.74C13.0107 14.74 13.356 14.7027 13.72 14.628C14.084 14.544 14.392 14.4367 14.644 14.306L14.532 14.684V12.024L14.756 12.22H12.922C12.7167 12.22 12.544 12.1547 12.404 12.024C12.2733 11.8933 12.208 11.7253 12.208 11.52C12.208 11.3147 12.2733 11.1467 12.404 11.016C12.544 10.8853 12.7167 10.82 12.922 10.82H15.344C15.54 10.82 15.7033 10.89 15.834 11.03C15.974 11.1607 16.044 11.3287 16.044 11.534V14.642C16.044 14.7913 16.0067 14.9173 15.932 15.02C15.8573 15.1227 15.7733 15.2067 15.68 15.272C15.26 15.5333 14.7933 15.7433 14.28 15.902C13.776 16.0607 13.244 16.14 12.684 16.14Z" fill="white"/>
</svg>
