<svg width="24" height="16" viewBox="0 0 24 16" fill="none" xmlns="http://www.w3.org/2000/svg">
<path d="M8.57147 8.00002C10.7772 8.00002 12.5715 6.35526 12.5715 4.33335C12.5715 2.31145 10.7772 0.666687 8.57147 0.666687C6.36576 0.666687 4.57147 2.31145 4.57147 4.33335C4.57147 6.35526 6.36576 8.00002 8.57147 8.00002ZM8.57147 2.76192C9.52004 2.76192 10.2858 3.46383 10.2858 4.33335C10.2858 5.20288 9.52004 5.90478 8.57147 5.90478C7.6229 5.90478 6.85719 5.20288 6.85719 4.33335C6.85719 3.46383 7.6229 2.76192 8.57147 2.76192ZM8.62862 13.2381H3.73719C4.86862 12.7143 6.8229 12.1905 8.57147 12.1905C8.69719 12.1905 8.83433 12.201 8.96004 12.201C9.34862 11.4362 10.0229 10.8076 10.8343 10.3048C10 10.1686 9.21147 10.0953 8.57147 10.0953C5.89719 10.0953 0.571472 11.321 0.571472 13.7619V15.3334H8.57147V13.7619C8.57147 13.5838 8.59433 13.4057 8.62862 13.2381ZM17.1429 10.6191C15.04 10.6191 10.8572 11.6772 10.8572 13.7619V15.3334H23.4286V13.7619C23.4286 11.6772 19.2458 10.6191 17.1429 10.6191ZM18.5258 8.7124C19.3943 8.26192 20 7.41335 20 6.42859C20 4.98288 18.72 3.80954 17.1429 3.80954C15.5658 3.80954 14.2858 4.98288 14.2858 6.42859C14.2858 7.41335 14.8915 8.26192 15.76 8.7124C16.1715 8.92192 16.64 9.04764 17.1429 9.04764C17.6458 9.04764 18.1143 8.92192 18.5258 8.7124Z" fill="#2C3832"/>
</svg>
