<svg width="23" height="23" viewBox="0 0 23 23" fill="none" xmlns="http://www.w3.org/2000/svg">
<circle cx="11.5" cy="11.5" r="11.5" fill="#649DA9"/>
<path d="M8.974 16C8.75 16 8.554 15.9347 8.386 15.804C8.218 15.664 8.134 15.4913 8.134 15.286V6.914C8.134 6.70867 8.204 6.54067 8.344 6.41C8.484 6.27 8.652 6.2 8.848 6.2H12.796C13.3 6.2 13.762 6.326 14.182 6.578C14.602 6.82067 14.938 7.16133 15.19 7.6C15.4513 8.02933 15.582 8.524 15.582 9.084C15.582 9.45733 15.5073 9.81667 15.358 10.162C15.2087 10.498 15.008 10.7967 14.756 11.058C14.504 11.3193 14.2193 11.5153 13.902 11.646L13.748 11.38C14.0373 11.4827 14.2893 11.632 14.504 11.828C14.7187 12.0147 14.8867 12.2387 15.008 12.5C15.1387 12.752 15.2087 13.0413 15.218 13.368C15.246 13.6573 15.2693 13.9 15.288 14.096C15.316 14.2827 15.3533 14.4367 15.4 14.558C15.4467 14.6793 15.5307 14.7727 15.652 14.838C15.82 14.9313 15.9227 15.0713 15.96 15.258C16.0067 15.4447 15.9693 15.6127 15.848 15.762C15.764 15.874 15.6567 15.9487 15.526 15.986C15.4047 16.014 15.2787 16.0187 15.148 16C15.0173 15.972 14.9053 15.9347 14.812 15.888C14.6627 15.7947 14.5087 15.664 14.35 15.496C14.2007 15.3187 14.0793 15.076 13.986 14.768C13.8927 14.46 13.846 14.054 13.846 13.55C13.846 13.3167 13.8087 13.116 13.734 12.948C13.6593 12.78 13.5567 12.6447 13.426 12.542C13.2953 12.43 13.1413 12.3507 12.964 12.304C12.7867 12.248 12.5907 12.22 12.376 12.22H9.408L9.604 11.94V15.286C9.604 15.4913 9.548 15.664 9.436 15.804C9.324 15.9347 9.17 16 8.974 16ZM9.422 11.002H12.768C12.9827 10.9927 13.188 10.9087 13.384 10.75C13.5893 10.582 13.7527 10.358 13.874 10.078C14.0047 9.798 14.07 9.48067 14.07 9.126C14.07 8.678 13.9347 8.30467 13.664 8.006C13.4027 7.698 13.09 7.544 12.726 7.544H9.45L9.604 7.18V11.296L9.422 11.002Z" fill="white"/>
</svg>
