<svg width="22" height="22" viewBox="0 0 22 22" fill="none" xmlns="http://www.w3.org/2000/svg">
<path d="M13.6522 2.44444L19.5556 8.34778V19.5556H2.44444V2.44444H13.6522ZM13.6522 0H2.44444C1.1 0 0 1.1 0 2.44444V19.5556C0 20.9 1.1 22 2.44444 22H19.5556C20.9 22 22 20.9 22 19.5556V8.34778C22 7.7 21.7433 7.07667 21.2789 6.62444L15.3756 0.721111C14.9233 0.256667 14.3 0 13.6522 0ZM4.88889 14.6667H17.1111V17.1111H4.88889V14.6667ZM4.88889 9.77778H17.1111V12.2222H4.88889V9.77778ZM4.88889 4.88889H13.4444V7.33333H4.88889V4.88889Z" fill="#2E636E"/>
</svg>
