<svg width="88" height="88" viewBox="0 0 88 88" fill="none" xmlns="http://www.w3.org/2000/svg">
<path d="M6.10352e-05 83.92C6.10352e-05 86.16 1.80006 87.96 4.04006 87.96H56.0001C58.2401 87.96 60.0401 86.16 60.0401 83.92V80H6.10352e-05V83.92ZM30.0001 31.96C15.0001 31.96 6.10352e-05 40 6.10352e-05 56H60.0001C60.0001 40 45.0001 31.96 30.0001 31.96ZM10.4801 48C14.9201 41.8 24.3601 39.96 30.0001 39.96C35.6401 39.96 45.0801 41.8 49.5201 48H10.4801ZM6.10352e-05 64H60.0001V72H6.10352e-05V64ZM68.0001 16V0H60.0001V16H40.0001L40.9201 24H79.1601L73.5601 80H68.0001V88H74.8801C78.2401 88 81.0001 85.4 81.4001 82.12L88.0001 16H68.0001Z" fill="#2E636E"/>
</svg>
