<svg width="23" height="23" viewBox="0 0 23 23" fill="none" xmlns="http://www.w3.org/2000/svg">
<circle cx="11.5" cy="11.5" r="11.5" fill="#A2774C"/>
<path d="M15.484 6.2C15.6707 6.2 15.82 6.26533 15.932 6.396C16.0533 6.51733 16.114 6.67133 16.114 6.858V15.286C16.114 15.4913 16.044 15.664 15.904 15.804C15.7733 15.9347 15.6053 16 15.4 16C15.3067 16 15.204 15.9813 15.092 15.944C14.9893 15.9067 14.91 15.8553 14.854 15.79L9.1 8.328L9.422 8.146V15.356C9.422 15.5333 9.36133 15.6873 9.24 15.818C9.11867 15.9393 8.96467 16 8.778 16C8.582 16 8.42333 15.9393 8.302 15.818C8.19 15.6873 8.134 15.5333 8.134 15.356V6.914C8.134 6.69933 8.204 6.52667 8.344 6.396C8.484 6.26533 8.652 6.2 8.848 6.2C8.95067 6.2 9.058 6.22333 9.17 6.27C9.29133 6.30733 9.38 6.368 9.436 6.452L15.05 13.76L14.84 13.956V6.858C14.84 6.67133 14.9007 6.51733 15.022 6.396C15.1433 6.26533 15.2973 6.2 15.484 6.2Z" fill="white"/>
</svg>
