<svg width="66" height="26" viewBox="0 0 66 26" fill="none" xmlns="http://www.w3.org/2000/svg">
<path d="M10.74 0.499998C11.93 0.499998 13.0617 0.861665 14.135 1.585C15.2083 2.285 16.0717 3.24167 16.725 4.455C17.3783 5.645 17.705 6.95167 17.705 8.375C17.705 9.775 17.3783 11.0817 16.725 12.295C16.0717 13.5083 15.2083 14.4767 14.135 15.2C13.0617 15.9 11.93 16.25 10.74 16.25H4.65V22.865C4.65 23.495 4.46333 24.0083 4.09 24.405C3.71667 24.8017 3.22667 25 2.62 25C2.03667 25 1.55833 24.8017 1.185 24.405C0.811667 23.985 0.625 23.4717 0.625 22.865V2.635C0.625 2.02833 0.823333 1.52667 1.22 1.13C1.64 0.709998 2.15333 0.499998 2.76 0.499998H10.74ZM10.74 12.26C11.1833 12.26 11.615 12.0733 12.035 11.7C12.4783 11.3267 12.8283 10.8483 13.085 10.265C13.365 9.65833 13.505 9.02833 13.505 8.375C13.505 7.72167 13.365 7.10333 13.085 6.52C12.8283 5.91333 12.4783 5.435 12.035 5.085C11.615 4.71167 11.1833 4.525 10.74 4.525H4.65V12.26H10.74Z" fill="#3D8493"/>
<path d="M44.2539 12.75C44.2539 15.06 43.7405 17.1833 42.7139 19.12C41.6872 21.0333 40.2639 22.55 38.4439 23.67C36.6472 24.79 34.6172 25.35 32.3539 25.35C30.0905 25.35 28.0489 24.79 26.2289 23.67C24.4322 22.55 23.0205 21.0333 21.9939 19.12C20.9905 17.1833 20.4889 15.06 20.4889 12.75C20.4889 10.44 20.9905 8.32833 21.9939 6.415C23.0205 4.47833 24.4322 2.95 26.2289 1.83C28.0489 0.709998 30.0905 0.149999 32.3539 0.149999C34.6172 0.149999 36.6472 0.709998 38.4439 1.83C40.2639 2.95 41.6872 4.47833 42.7139 6.415C43.7405 8.32833 44.2539 10.44 44.2539 12.75ZM39.7039 12.75C39.7039 11.1867 39.3889 9.775 38.7589 8.515C38.1289 7.23167 37.2539 6.21667 36.1339 5.47C35.0139 4.72333 33.7539 4.35 32.3539 4.35C30.9305 4.35 29.6589 4.72333 28.5389 5.47C27.4422 6.19333 26.5789 7.19667 25.9489 8.48C25.3422 9.76333 25.0389 11.1867 25.0389 12.75C25.0389 14.3133 25.3422 15.7367 25.9489 17.02C26.5789 18.3033 27.4422 19.3183 28.5389 20.065C29.6589 20.7883 30.9305 21.15 32.3539 21.15C33.7539 21.15 35.0139 20.7767 36.1339 20.03C37.2539 19.2833 38.1289 18.28 38.7589 17.02C39.3889 15.7367 39.7039 14.3133 39.7039 12.75Z" fill="#D89F65"/>
<path d="M56.1465 25.35C54.4665 25.35 52.9732 25.14 51.6665 24.72C50.3598 24.3 49.1348 23.5883 47.9915 22.585C47.3615 22.025 47.0465 21.4067 47.0465 20.73C47.0465 20.1933 47.2448 19.7267 47.6415 19.33C48.0382 18.91 48.5165 18.7 49.0765 18.7C49.5198 18.7 49.9165 18.84 50.2665 19.12C51.1998 19.89 52.1098 20.45 52.9965 20.8C53.8832 21.15 54.9332 21.325 56.1465 21.325C57.4532 21.325 58.5732 21.0333 59.5065 20.45C60.4632 19.8667 60.9415 19.1433 60.9415 18.28C60.9415 17.23 60.4748 16.4133 59.5415 15.83C58.6082 15.2233 57.1265 14.7683 55.0965 14.465C49.9865 13.7183 47.4315 11.3383 47.4315 7.325C47.4315 5.855 47.8165 4.58333 48.5865 3.51C49.3565 2.41333 50.4065 1.585 51.7365 1.025C53.0665 0.441665 54.5482 0.149999 56.1815 0.149999C57.6515 0.149999 59.0282 0.371665 60.3115 0.814998C61.6182 1.25833 62.7032 1.84167 63.5665 2.565C64.2432 3.10167 64.5815 3.72 64.5815 4.42C64.5815 4.95667 64.3832 5.435 63.9865 5.855C63.5898 6.25167 63.1232 6.45 62.5865 6.45C62.2365 6.45 61.9215 6.345 61.6415 6.135C61.0348 5.645 60.1832 5.20167 59.0865 4.805C58.0132 4.385 57.0448 4.175 56.1815 4.175C54.7115 4.175 53.5682 4.455 52.7515 5.015C51.9582 5.55167 51.5615 6.26333 51.5615 7.15C51.5615 8.15333 51.9698 8.91167 52.7865 9.425C53.6265 9.93833 54.9332 10.3583 56.7065 10.685C58.7132 11.035 60.3115 11.49 61.5015 12.05C62.7148 12.5867 63.6248 13.3333 64.2315 14.29C64.8382 15.2233 65.1415 16.4717 65.1415 18.035C65.1415 19.505 64.7215 20.8 63.8815 21.92C63.0648 23.0167 61.9682 23.8683 60.5915 24.475C59.2148 25.0583 57.7332 25.35 56.1465 25.35Z" fill="#4A5C2F"/>
</svg>
