<svg width="22" height="22" viewBox="0 0 22 22" fill="none" xmlns="http://www.w3.org/2000/svg">
<path d="M15.625 13.75H14.6375L14.2875 13.4125C15.5125 11.9875 16.25 10.1375 16.25 8.125C16.25 3.6375 12.6125 0 8.125 0C3.6375 0 0 3.6375 0 8.125C0 12.6125 3.6375 16.25 8.125 16.25C10.1375 16.25 11.9875 15.5125 13.4125 14.2875L13.75 14.6375V15.625L20 21.8625L21.8625 20L15.625 13.75ZM8.125 13.75C5.0125 13.75 2.5 11.2375 2.5 8.125C2.5 5.0125 5.0125 2.5 8.125 2.5C11.2375 2.5 13.75 5.0125 13.75 8.125C13.75 11.2375 11.2375 13.75 8.125 13.75Z" fill="#89928E"/>
</svg>
