<svg width="24" height="24" viewBox="0 0 24 24" fill="none" xmlns="http://www.w3.org/2000/svg">
<path d="M21.1688 13.176C21.2182 12.792 21.2552 12.408 21.2552 12C21.2552 11.592 21.2182 11.208 21.1688 10.824L23.7719 8.844C24.0063 8.664 24.068 8.34 23.9199 8.076L21.4526 3.924C21.3416 3.732 21.1318 3.624 20.9098 3.624C20.8358 3.624 20.7617 3.636 20.7001 3.66L17.6282 4.86C16.9867 4.38 16.2959 3.984 15.5433 3.684L15.0745 0.504C15.0375 0.216 14.7785 0 14.4701 0H9.5354C9.22698 0 8.96791 0.216 8.9309 0.504L8.46211 3.684C7.70957 3.984 7.01872 4.392 6.37722 4.86L3.30539 3.66C3.23137 3.636 3.15735 3.624 3.08334 3.624C2.87361 3.624 2.66389 3.732 2.55286 3.924L0.0855318 8.076C-0.0748444 8.34 -0.00082446 8.664 0.233572 8.844L2.8366 10.824C2.78726 11.208 2.75025 11.604 2.75025 12C2.75025 12.396 2.78726 12.792 2.8366 13.176L0.233572 15.156C-0.00082446 15.336 -0.0625078 15.66 0.0855318 15.924L2.55286 20.076C2.66389 20.268 2.87361 20.376 3.09567 20.376C3.16969 20.376 3.24371 20.364 3.30539 20.34L6.37722 19.14C7.01872 19.62 7.70957 20.016 8.46211 20.316L8.9309 23.496C8.96791 23.784 9.22698 24 9.5354 24H14.4701C14.7785 24 15.0375 23.784 15.0745 23.496L15.5433 20.316C16.2959 20.016 16.9867 19.608 17.6282 19.14L20.7001 20.34C20.7741 20.364 20.8481 20.376 20.9221 20.376C21.1318 20.376 21.3416 20.268 21.4526 20.076L23.9199 15.924C24.068 15.66 24.0063 15.336 23.7719 15.156L21.1688 13.176ZM18.7262 11.124C18.7755 11.496 18.7879 11.748 18.7879 12C18.7879 12.252 18.7632 12.516 18.7262 12.876L18.5535 14.232L19.6514 15.072L20.9838 16.08L20.1202 17.532L18.5535 16.92L17.2705 16.416L16.1602 17.232C15.6297 17.616 15.1239 17.904 14.6181 18.108L13.3104 18.624L13.113 19.98L12.8663 21.6H11.1392L10.9048 19.98L10.7074 18.624L9.39969 18.108C8.86922 17.892 8.37575 17.616 7.88229 17.256L6.75965 16.416L5.45197 16.932L3.88522 17.544L3.02165 16.092L4.35401 15.084L5.45197 14.244L5.27926 12.888C5.24225 12.516 5.21757 12.24 5.21757 12C5.21757 11.76 5.24225 11.484 5.27926 11.124L5.45197 9.768L4.35401 8.928L3.02165 7.92L3.88522 6.468L5.45197 7.08L6.73498 7.584L7.84528 6.768C8.37575 6.384 8.88155 6.096 9.38736 5.892L10.695 5.376L10.8924 4.02L11.1392 2.4H12.854L13.0883 4.02L13.2857 5.376L14.5934 5.892C15.1239 6.108 15.6174 6.384 16.1108 6.744L17.2335 7.584L18.5411 7.068L20.1079 6.456L20.9715 7.908L19.6514 8.928L18.5535 9.768L18.7262 11.124ZM12.0027 7.2C9.27633 7.2 7.06807 9.348 7.06807 12C7.06807 14.652 9.27633 16.8 12.0027 16.8C14.7291 16.8 16.9374 14.652 16.9374 12C16.9374 9.348 14.7291 7.2 12.0027 7.2ZM12.0027 14.4C10.6457 14.4 9.5354 13.32 9.5354 12C9.5354 10.68 10.6457 9.6 12.0027 9.6C13.3598 9.6 14.4701 10.68 14.4701 12C14.4701 13.32 13.3598 14.4 12.0027 14.4Z" fill="#2E636E"/>
</svg>
