<svg width="17" height="17" viewBox="0 0 17 17" fill="none" xmlns="http://www.w3.org/2000/svg">
<g clip-path="url(#clip0_74_3095)">
<path d="M14.7465 14.6836L14.7464 14.6837L14.7535 14.6905C14.805 14.74 14.8151 14.8378 14.7465 14.9065C14.6817 14.9712 14.5883 14.9712 14.5236 14.9065L1.94357 2.3265C1.87884 2.26176 1.87884 2.16834 1.94357 2.10361C2.00831 2.03887 2.10173 2.03887 2.16647 2.10361L14.7465 14.6836Z" fill="white" stroke="black"/>
<path d="M1.45227 0.701077L1.41568 0.737652L1.45227 0.701077Z" fill="#070707" stroke="black"/>
<path d="M2.16647 14.9065L2.52002 15.2601L2.16647 14.9065C2.10173 14.9712 2.00831 14.9712 1.94357 14.9065C1.87492 14.8378 1.88509 14.74 1.93657 14.6905L1.93664 14.6905L1.94357 14.6836L14.5236 2.10361C14.5883 2.03887 14.6817 2.03887 14.7465 2.10361C14.8112 2.16835 14.8112 2.26176 14.7465 2.3265L15.1 2.68005L14.7465 2.3265L2.16647 14.9065Z" fill="white" stroke="black"/>
<mask id="path-4-inside-1_74_3095" fill="white">
<path d="M1.0846 17.0001C0.801664 17.0001 0.530513 16.8938 0.318308 16.6812C0.117892 16.4804 0 16.2088 0 15.9136C0 15.6183 0.106103 15.3585 0.318308 15.1578L15.1609 0.301207C15.5617 -0.100321 16.2809 -0.100321 16.6817 0.301207C16.8821 0.501971 17 0.773593 17 1.05703C17 1.34046 16.8939 1.61208 16.6817 1.82465L1.8509 16.6812C1.65049 16.882 1.37933 17.0001 1.0846 17.0001ZM15.9154 0.584639C15.7857 0.584639 15.6678 0.631878 15.5735 0.726355L0.754508 15.5829C0.660194 15.6774 0.613037 15.7955 0.613037 15.9136C0.613037 16.0317 0.660194 16.1616 0.754508 16.2561C0.931345 16.4332 1.24965 16.4332 1.42649 16.2561L16.2573 1.39951C16.3516 1.30503 16.3988 1.18693 16.3988 1.05703C16.3988 0.927119 16.3516 0.809022 16.2573 0.726355C16.163 0.631878 16.0451 0.584639 15.9272 0.584639H15.9154Z"/>
</mask>
<path d="M1.0846 17.0001C0.801664 17.0001 0.530513 16.8938 0.318308 16.6812C0.117892 16.4804 0 16.2088 0 15.9136C0 15.6183 0.106103 15.3585 0.318308 15.1578L15.1609 0.301207C15.5617 -0.100321 16.2809 -0.100321 16.6817 0.301207C16.8821 0.501971 17 0.773593 17 1.05703C17 1.34046 16.8939 1.61208 16.6817 1.82465L1.8509 16.6812C1.65049 16.882 1.37933 17.0001 1.0846 17.0001ZM15.9154 0.584639C15.7857 0.584639 15.6678 0.631878 15.5735 0.726355L0.754508 15.5829C0.660194 15.6774 0.613037 15.7955 0.613037 15.9136C0.613037 16.0317 0.660194 16.1616 0.754508 16.2561C0.931345 16.4332 1.24965 16.4332 1.42649 16.2561L16.2573 1.39951C16.3516 1.30503 16.3988 1.18693 16.3988 1.05703C16.3988 0.927119 16.3516 0.809022 16.2573 0.726355C16.163 0.631878 16.0451 0.584639 15.9272 0.584639H15.9154Z" fill="#070707"/>
<path d="M0.318308 16.6812L-0.389412 17.3877L0.318308 16.6812ZM0.318308 15.1578L1.00556 15.8842L1.01579 15.8745L1.02575 15.8645L0.318308 15.1578ZM15.1609 0.301207L15.8683 1.00798L15.8686 1.0077L15.1609 0.301207ZM16.6817 1.82465L15.974 1.11816L16.6817 1.82465ZM1.8509 16.6812L2.55862 17.3877L1.8509 16.6812ZM15.5735 0.726355L14.8658 0.0198618L14.8655 0.0201433L15.5735 0.726355ZM0.754508 15.5829L1.46223 16.2894L1.46251 16.2891L0.754508 15.5829ZM0.754508 16.2561L1.46223 15.5496L0.754508 16.2561ZM1.42649 16.2561L2.13421 16.9625L1.42649 16.2561ZM16.2573 1.39951L15.5496 0.693012L16.2573 1.39951ZM16.2573 0.726355L15.5496 1.43285L15.5731 1.45642L15.5981 1.47836L16.2573 0.726355ZM1.0846 16.0001C1.06914 16.0001 1.05978 15.9973 1.05413 15.995C1.04892 15.9929 1.03941 15.9881 1.02603 15.9747L-0.389412 17.3877C0.0146454 17.7925 0.542247 18.0001 1.0846 18.0001V16.0001ZM1.02603 15.9747C1.01599 15.9647 1.0098 15.9547 1.00607 15.9458C1.00251 15.9373 1 15.9271 1 15.9136H-1C-1 16.4811 -0.771728 17.0047 -0.389412 17.3877L1.02603 15.9747ZM1 15.9136C1 15.8998 1.00123 15.8915 1.00192 15.8879C1.0026 15.8844 1.00299 15.8841 1.00226 15.8858C1.0015 15.8876 1.00055 15.8892 0.999987 15.89C0.999462 15.8908 1.00074 15.8887 1.00556 15.8842L-0.368945 14.4313C-0.791958 14.8315 -1 15.3593 -1 15.9136H1ZM1.02575 15.8645L15.8683 1.00798L14.4534 -0.405567L-0.389131 14.451L1.02575 15.8645ZM15.8686 1.0077C15.8626 1.01376 15.8615 1.01208 15.8713 1.00828C15.8819 1.00418 15.8994 1.00006 15.9213 1.00006C15.9432 1.00006 15.9607 1.00418 15.9713 1.00828C15.9811 1.01208 15.98 1.01376 15.974 1.0077L17.3894 -0.405286C16.5979 -1.19816 15.2447 -1.19816 14.4532 -0.405286L15.8686 1.0077ZM15.974 1.0077C15.9967 1.0305 16 1.05167 16 1.05703H18C18 0.495515 17.7675 -0.0265609 17.3894 -0.405286L15.974 1.0077ZM16 1.05703C16 1.0732 15.9972 1.08319 15.9946 1.08934C15.9923 1.09503 15.9874 1.10475 15.974 1.11816L17.3894 2.53115C17.7934 2.12646 18 1.59877 18 1.05703H16ZM15.974 1.11816L1.14318 15.9747L2.55862 17.3877L17.3894 2.53115L15.974 1.11816ZM1.14318 15.9747C1.13315 15.9848 1.12338 15.9908 1.11496 15.9943C1.10696 15.9977 1.09737 16.0001 1.0846 16.0001V18.0001C1.65274 18.0001 2.17627 17.7707 2.55862 17.3877L1.14318 15.9747ZM15.9154 -0.415361C15.5248 -0.415361 15.1509 -0.26579 14.8658 0.0198618L16.2812 1.43285C16.2386 1.4756 16.1813 1.51623 16.1113 1.545C16.0416 1.57366 15.9736 1.58464 15.9154 1.58464V-0.415361ZM14.8655 0.0201433L0.0465067 14.8767L1.46251 16.2891L16.2815 1.43257L14.8655 0.0201433ZM0.0467876 14.8764C-0.228901 15.1526 -0.386963 15.5225 -0.386963 15.9136H1.61304C1.61304 16.0685 1.54929 16.2022 1.46223 16.2894L0.0467876 14.8764ZM-0.386963 15.9136C-0.386963 16.2785 -0.247095 16.6682 0.0467876 16.9625L1.46223 15.5496C1.56748 15.655 1.61304 15.7848 1.61304 15.9136H-0.386963ZM0.0467876 16.9625C0.614289 17.531 1.56671 17.531 2.13421 16.9625L0.718771 15.5496C0.843023 15.4251 0.986516 15.3889 1.0905 15.3889C1.19448 15.3889 1.33798 15.4251 1.46223 15.5496L0.0467876 16.9625ZM2.13421 16.9625L16.965 2.106L15.5496 0.693012L0.718771 15.5496L2.13421 16.9625ZM16.965 2.106C17.2501 1.82042 17.3988 1.44669 17.3988 1.05703H15.3988C15.3988 0.999372 15.4096 0.931908 15.438 0.862558C15.4665 0.792894 15.5069 0.735764 15.5496 0.693012L16.965 2.106ZM17.3988 1.05703C17.3988 0.680765 17.2569 0.272754 16.9164 -0.0256552L15.5981 1.47836C15.4463 1.34529 15.3988 1.17347 15.3988 1.05703H17.3988ZM16.965 0.0198618C16.6893 -0.256342 16.3192 -0.415361 15.9272 -0.415361V1.58464C15.7709 1.58464 15.6367 1.5201 15.5496 1.43285L16.965 0.0198618ZM15.9272 -0.415361H15.9154V1.58464H15.9272V-0.415361Z" fill="black" mask="url(#path-4-inside-1_74_3095)"/>
<path d="M15.93 8.50003C15.93 12.6919 12.5318 16.09 8.34 16.09C4.14816 16.09 0.75 12.6919 0.75 8.50003C0.75 4.30819 4.14816 0.910034 8.34 0.910034C12.5318 0.910034 15.93 4.30819 15.93 8.50003Z" fill="white" stroke="black"/>
<mask id="path-7-inside-2_74_3095" fill="white">
<path d="M8.34 16.84C3.74 16.84 0 13.1 0 8.50003C0 3.90003 3.74 0.160034 8.34 0.160034C12.94 0.160034 16.68 3.90003 16.68 8.50003C16.68 13.1 12.94 16.84 8.34 16.84ZM8.34 0.670034C4.02 0.670034 0.51 4.18003 0.51 8.50003C0.51 12.82 4.02 16.33 8.34 16.33C12.66 16.33 16.17 12.82 16.17 8.50003C16.17 4.18003 12.66 0.670034 8.34 0.670034Z"/>
</mask>
<path d="M8.34 16.84C3.74 16.84 0 13.1 0 8.50003C0 3.90003 3.74 0.160034 8.34 0.160034C12.94 0.160034 16.68 3.90003 16.68 8.50003C16.68 13.1 12.94 16.84 8.34 16.84ZM8.34 0.670034C4.02 0.670034 0.51 4.18003 0.51 8.50003C0.51 12.82 4.02 16.33 8.34 16.33C12.66 16.33 16.17 12.82 16.17 8.50003C16.17 4.18003 12.66 0.670034 8.34 0.670034Z" fill="#070707"/>
<path d="M8.34 15.84C4.29228 15.84 1 12.5477 1 8.50003H-1C-1 13.6523 3.18772 17.84 8.34 17.84V15.84ZM1 8.50003C1 4.45232 4.29228 1.16003 8.34 1.16003V-0.839966C3.18772 -0.839966 -1 3.34775 -1 8.50003H1ZM8.34 1.16003C12.3877 1.16003 15.68 4.45232 15.68 8.50003H17.68C17.68 3.34775 13.4923 -0.839966 8.34 -0.839966V1.16003ZM15.68 8.50003C15.68 12.5477 12.3877 15.84 8.34 15.84V17.84C13.4923 17.84 17.68 13.6523 17.68 8.50003H15.68ZM8.34 -0.329966C3.46772 -0.329966 -0.49 3.62775 -0.49 8.50003H1.51C1.51 4.73232 4.57228 1.67003 8.34 1.67003V-0.329966ZM-0.49 8.50003C-0.49 13.3723 3.46772 17.33 8.34 17.33V15.33C4.57228 15.33 1.51 12.2677 1.51 8.50003H-0.49ZM8.34 17.33C13.2123 17.33 17.17 13.3723 17.17 8.50003H15.17C15.17 12.2677 12.1077 15.33 8.34 15.33V17.33ZM17.17 8.50003C17.17 3.62775 13.2123 -0.329966 8.34 -0.329966V1.67003C12.1077 1.67003 15.17 4.73232 15.17 8.50003H17.17Z" fill="#2C3832" mask="url(#path-7-inside-2_74_3095)"/>
</g>
<defs>
<clipPath id="clip0_74_3095">
<rect width="16.68" height="16.68" fill="white" transform="translate(0 0.160034)"/>
</clipPath>
</defs>
</svg>
