<svg width="147" height="147" viewBox="0 0 147 147" fill="none" xmlns="http://www.w3.org/2000/svg">
<path fill-rule="evenodd" clip-rule="evenodd" d="M72.3541 30.5433C74.0024 30.5433 75.3211 31.8874 75.3211 33.5103V114.101C75.3211 115.75 73.9771 117.068 72.3541 117.068C70.7057 117.068 69.3871 115.724 69.3871 114.101V33.5357C69.3871 31.8874 70.7311 30.5687 72.3541 30.5687V30.5433Z" fill="white" stroke="#231F20" stroke-miterlimit="10"/>
<path d="M72.3541 117.728C70.3507 117.728 68.7277 116.105 68.7277 114.101V33.5357C68.7277 31.5323 70.3507 29.9094 72.3541 29.9094C74.3574 29.9094 75.9804 31.5323 75.9804 33.5357V114.127C75.9804 116.13 74.3574 117.753 72.3541 117.753V117.728ZM72.3541 31.1773C71.0608 31.1773 70.021 32.217 70.021 33.5103V114.101C70.021 115.395 71.0608 116.434 72.3541 116.434C73.6474 116.434 74.6871 115.395 74.6871 114.101V33.5357C74.6871 32.2424 73.6474 31.2027 72.3541 31.2027V31.1773Z" fill="#070707" stroke="#231F20" stroke-miterlimit="10"/>
<path fill-rule="evenodd" clip-rule="evenodd" d="M115.642 73.8313C115.642 75.4796 114.298 76.8236 112.675 76.8236H32.0585C30.4102 76.8236 29.0915 75.4796 29.0915 73.8313C29.0915 72.1829 30.4356 70.8643 32.0585 70.8643H112.65C114.298 70.8643 115.617 72.2083 115.617 73.8313H115.642Z" fill="white" stroke="#231F20" stroke-miterlimit="10"/>
<path d="M112.65 77.4576H32.0585C30.0552 77.4576 28.4322 75.8346 28.4322 73.8312C28.4322 71.8279 30.0552 70.2049 32.0585 70.2049H112.65C114.653 70.2049 116.276 71.8279 116.276 73.8312C116.276 75.8346 114.653 77.4576 112.65 77.4576ZM32.0585 71.4982C30.7652 71.4982 29.7255 72.5379 29.7255 73.8312C29.7255 75.1245 30.7652 76.1643 32.0585 76.1643H112.65C113.943 76.1643 114.983 75.1245 114.983 73.8312C114.983 72.5379 113.943 71.4982 112.65 71.4982H32.0585Z" fill="#070707" stroke="#231F20" stroke-miterlimit="10"/>
<path fill-rule="evenodd" clip-rule="evenodd" d="M72.3541 111.464C93.0978 111.464 110.012 94.5496 110.012 73.8059C110.012 53.0622 93.0978 36.1477 72.3541 36.1477C51.6104 36.1477 34.6959 53.0622 34.6959 73.8059C34.6959 94.5496 51.6104 111.464 72.3541 111.464Z" fill="white" stroke="#231F20" stroke-miterlimit="10"/>
<path d="M72.3541 112.123C51.23 112.123 34.0365 94.93 34.0365 73.8313C34.0365 52.7325 51.23 35.5137 72.3541 35.5137C93.4782 35.5137 110.672 52.7072 110.672 73.8313C110.672 94.9554 93.4782 112.123 72.3541 112.123ZM72.3541 36.807C51.94 36.807 35.3299 53.4172 35.3299 73.8313C35.3299 94.2453 51.94 110.83 72.3541 110.83C92.7681 110.83 109.378 94.22 109.378 73.8313C109.378 53.4426 92.7681 36.807 72.3541 36.807Z" fill="#070707" stroke="#231F20" stroke-miterlimit="10"/>
<path fill-rule="evenodd" clip-rule="evenodd" d="M98.0174 32.2677L117.595 51.8449C118.939 53.1889 121.145 53.1889 122.489 51.8449L142.776 31.5577L118.279 7.08618L97.9921 27.3734C96.6481 28.7175 96.6481 30.9237 97.9921 32.2677H98.0174Z" fill="white" stroke="#231F20" stroke-miterlimit="10"/>
<path d="M120.029 53.5186C118.939 53.5186 117.899 53.0875 117.113 52.3267L97.5356 32.7495C96.7495 31.9887 96.3438 30.949 96.3438 29.8586C96.3438 28.7681 96.7749 27.7284 97.5356 26.9423L118.279 6.17322L143.664 31.5576L122.92 52.3013C122.159 53.0875 121.12 53.4932 120.004 53.4932L120.029 53.5186ZM118.279 8.02443L98.4486 27.8552C97.916 28.3878 97.6371 29.0978 97.6371 29.8332C97.6371 30.594 97.916 31.304 98.4486 31.8112L118.026 51.3884C119.091 52.4535 120.942 52.4535 122.007 51.3884L141.838 31.5576L118.279 7.99907V8.02443Z" fill="#070707" stroke="#231F20" stroke-miterlimit="10"/>
<path fill-rule="evenodd" clip-rule="evenodd" d="M122.464 6.09715L143.765 27.3988C145.109 28.7428 146.453 31.2787 144.044 32.0141L141.584 32.7749L117.087 8.27803L117.848 5.8182C118.66 3.13014 121.12 4.75312 122.464 6.09715Z" fill="white" stroke="#231F20" stroke-miterlimit="10"/>
<path d="M141.381 33.4849L116.377 8.48091L117.24 5.6407C117.747 3.99236 118.812 3.73877 119.42 3.73877C120.866 3.73877 122.362 5.0828 122.92 5.66606L144.222 26.9677C145.236 27.982 146.301 29.6557 145.946 31.0505C145.819 31.583 145.414 32.3184 144.222 32.6481L141.381 33.5103V33.4849ZM117.823 8.10053L141.762 32.0395L143.867 31.4055C144.577 31.1773 144.678 30.8222 144.703 30.7208C144.881 30.0615 144.272 28.8442 143.309 27.8806L122.007 6.55363C121.069 5.61534 120.054 5.00672 119.42 5.00672C119.243 5.00672 118.787 5.00672 118.482 5.99573L117.848 8.10053H117.823Z" fill="#070707" stroke="#231F20" stroke-miterlimit="10"/>
<path fill-rule="evenodd" clip-rule="evenodd" d="M48.9984 114.761L29.4212 95.1835C28.0772 93.8395 25.8709 93.8395 24.5269 95.1835L4.23964 115.471L28.7111 139.942L48.9984 119.655C50.3424 118.311 50.3424 116.105 48.9984 114.761Z" fill="white" stroke="#231F20" stroke-miterlimit="10"/>
<path d="M28.7111 140.855L3.32672 115.445L24.0704 94.7017C25.6173 93.1548 28.3308 93.1548 29.8777 94.7017L49.4549 114.279C51.0525 115.877 51.0525 118.489 49.4549 120.086L28.7111 140.83V140.855ZM5.15257 115.445L28.7111 139.004L48.5419 119.173C49.6324 118.083 49.6324 116.282 48.5419 115.192L28.9647 95.6147C27.8997 94.5496 26.0484 94.5496 24.9834 95.6147L5.15257 115.445Z" fill="#070707" stroke="#231F20" stroke-miterlimit="10"/>
<path fill-rule="evenodd" clip-rule="evenodd" d="M24.5523 140.931L3.25065 119.63C1.90662 118.286 0.562592 115.75 2.9717 115.014L5.43153 114.254L29.903 138.725L29.1676 141.185C28.3561 143.873 25.8963 142.25 24.5523 140.906V140.931Z" fill="white" stroke="#231F20" stroke-miterlimit="10"/>
<path d="M27.5953 143.315C26.1499 143.315 24.6537 141.971 24.0958 141.388L2.79418 120.086C1.77982 119.072 0.714735 117.398 1.06976 116.029C1.19656 115.496 1.6023 114.761 2.79418 114.406L5.63439 113.544L30.6638 138.573L29.8016 141.413C29.2944 143.061 28.2293 143.315 27.6207 143.315H27.5953ZM5.25401 114.989L3.1492 115.623C2.41379 115.851 2.33771 116.206 2.31236 116.308C2.13484 116.967 2.74346 118.184 3.7071 119.148L25.0087 140.449C25.947 141.388 26.9614 141.996 27.5953 141.996C27.7729 141.996 28.2293 141.996 28.5336 141.007L29.1676 138.903L5.25401 114.989Z" fill="#070707" stroke="#231F20" stroke-miterlimit="10"/>
<path fill-rule="evenodd" clip-rule="evenodd" d="M114.754 98.0237L95.1772 117.601C93.8332 118.945 93.8332 121.151 95.1772 122.495L115.464 142.782L139.936 118.311L119.649 98.0237C118.305 96.6797 116.098 96.6797 114.754 98.0237Z" fill="white" stroke="#231F20" stroke-miterlimit="10"/>
<path d="M115.439 143.695L94.6954 122.952C93.0978 121.354 93.0978 118.742 94.6954 117.144L114.273 97.5673C115.819 96.0204 118.533 96.0204 120.08 97.5673L140.824 118.311L115.439 143.695ZM117.189 97.6687C116.428 97.6687 115.718 97.973 115.211 98.4802L95.6337 118.057C94.5433 119.148 94.5433 120.948 95.6337 122.039L115.464 141.87L139.023 118.311L119.192 98.4802C118.66 97.9477 117.95 97.6687 117.214 97.6687H117.189Z" fill="#070707" stroke="#231F20" stroke-miterlimit="10"/>
<path fill-rule="evenodd" clip-rule="evenodd" d="M140.925 122.47L119.623 143.772C118.279 145.116 115.743 146.46 115.008 144.05L114.273 141.591L138.744 117.119L141.204 117.88C143.892 118.691 142.269 121.151 140.925 122.495V122.47Z" fill="white" stroke="#231F20" stroke-miterlimit="10"/>
<path d="M116.555 146.028C115.946 146.028 114.856 145.8 114.374 144.253L113.512 141.413L138.541 116.384L141.381 117.246C142.649 117.626 143.081 118.362 143.233 118.894C143.638 120.467 142.066 122.242 141.381 122.926L120.08 144.228C119.218 145.09 117.823 146.028 116.58 146.028H116.555ZM114.983 141.768L115.617 143.873C115.845 144.634 116.251 144.735 116.555 144.735C117.24 144.735 118.305 144.152 119.142 143.315L140.443 122.013C141.508 120.948 142.117 119.833 141.965 119.224C141.889 118.92 141.559 118.666 141.001 118.489L138.896 117.855L114.957 141.794L114.983 141.768Z" fill="#070707" stroke="#231F20" stroke-miterlimit="10"/>
<path fill-rule="evenodd" clip-rule="evenodd" d="M32.2614 49.0047L51.8386 29.4275C53.1826 28.0835 53.1826 25.8772 51.8386 24.5332L31.5767 4.24597L7.07985 28.7428L27.3671 49.0301C28.7111 50.3741 30.9174 50.3741 32.2614 49.0301V49.0047Z" fill="white" stroke="#231F20" stroke-miterlimit="10"/>
<path d="M29.8269 50.6784C28.7365 50.6784 27.6968 50.2473 26.9106 49.4865L6.16693 28.7428L31.5767 3.33301L52.3204 24.0767C53.1065 24.8375 53.5123 25.8772 53.5123 26.9676C53.5123 28.0581 53.0812 29.0978 52.3204 29.8839L32.7432 49.4611C31.9825 50.2473 30.9427 50.653 29.8523 50.653L29.8269 50.6784ZM7.99278 28.7428L27.8236 48.5736C28.8886 49.6386 30.7399 49.6386 31.8049 48.5736L51.3821 28.9964C51.9147 28.4638 52.1936 27.7538 52.1936 27.0184C52.1936 26.283 51.9147 25.5475 51.3821 25.0404L31.5767 5.15886L7.99278 28.7428Z" fill="#070707" stroke="#231F20" stroke-miterlimit="10"/>
<path fill-rule="evenodd" clip-rule="evenodd" d="M6.09086 24.5585L27.3925 3.25691C28.7365 1.91288 31.2724 0.568848 32.0078 2.97796L32.7686 5.43779L8.27174 29.9346L5.81191 29.1992C3.12385 28.3877 4.74683 25.9279 6.09086 24.5839V24.5585Z" fill="white" stroke="#231F20" stroke-miterlimit="10"/>
<path d="M8.44925 30.6447L5.60904 29.7825C4.34108 29.4021 3.90998 28.6667 3.75783 28.1342C3.37744 26.5619 4.92434 24.7868 5.60904 24.1021L26.936 2.80049C27.7982 1.93829 29.193 1 30.4356 1C31.0442 1 32.1346 1.22823 32.6164 2.80049L33.4786 5.64071L8.44925 30.6447ZM30.4609 2.29331C29.7762 2.29331 28.7111 2.87657 27.8743 3.71342L6.54732 25.015C5.48224 26.0801 4.87362 27.1959 5.02578 27.8045C5.10186 28.1088 5.43152 28.3624 5.98942 28.5399L8.09422 29.1739L32.0332 5.26032L31.3992 3.15552C31.171 2.39475 30.7652 2.29331 30.4609 2.29331Z" fill="#070707" stroke="#231F20" stroke-miterlimit="10"/>
</svg>
