<svg width="23" height="23" viewBox="0 0 23 23" fill="none" xmlns="http://www.w3.org/2000/svg">
<circle cx="11.5" cy="11.5" r="11.5" fill="#4A5C2F"/>
<path d="M15.274 6.172C15.47 6.172 15.638 6.23733 15.778 6.368C15.918 6.49867 15.988 6.65733 15.988 6.844C15.988 6.94667 15.9647 7.054 15.918 7.166L12.376 15.538C12.3013 15.6967 12.1987 15.8133 12.068 15.888C11.9467 15.9627 11.8207 16 11.69 16C11.5593 15.9907 11.4333 15.9487 11.312 15.874C11.2 15.7993 11.1113 15.692 11.046 15.552L7.504 7.166C7.48533 7.11933 7.47133 7.07267 7.462 7.026C7.45267 6.97 7.448 6.914 7.448 6.858C7.448 6.64333 7.52733 6.47533 7.686 6.354C7.84467 6.23267 7.99867 6.172 8.148 6.172C8.44667 6.172 8.666 6.326 8.806 6.634L12.012 14.236H11.606L14.63 6.62C14.7607 6.32133 14.9753 6.172 15.274 6.172Z" fill="white"/>
</svg>
